<?xml version="1.0" encoding="UTF-8" standalone="no"?>
<!-- Created with Inkscape (http://www.inkscape.org/) -->

<svg
   xmlns:dc="http://purl.org/dc/elements/1.1/"
   xmlns:cc="http://creativecommons.org/ns#"
   xmlns:rdf="http://www.w3.org/1999/02/22-rdf-syntax-ns#"
   xmlns:svg="http://www.w3.org/2000/svg"
   xmlns="http://www.w3.org/2000/svg"
   xmlns:sodipodi="http://sodipodi.sourceforge.net/DTD/sodipodi-0.dtd"
   xmlns:inkscape="http://www.inkscape.org/namespaces/inkscape"
   width="210mm"
   height="297mm"
   viewBox="0 0 744.09448819 1052.3622047"
   id="svg3876"
   version="1.1"
   inkscape:version="0.91 r13725"
   sodipodi:docname="drawing.svg">
  <defs
     id="defs3878">
    <inkscape:perspective
       sodipodi:type="inkscape:persp3d"
       inkscape:vp_x="0 : 526.1811 : 1"
       inkscape:vp_y="0 : 1000 : 0"
       inkscape:vp_z="744.09449 : 526.1811 : 1"
       inkscape:persp3d-origin="372.04724 : 350.7874 : 1"
       id="perspective4136" />
    <filter
       inkscape:collect="always"
       style="color-interpolation-filters:sRGB"
       id="filter5505"
       x="-0.27"
       width="1.54"
       y="-0.10180328"
       height="1.2036066">
      <feGaussianBlur
         inkscape:collect="always"
         stdDeviation="2.5875"
         id="feGaussianBlur5507" />
    </filter>
    <filter
       inkscape:collect="always"
       style="color-interpolation-filters:sRGB"
       id="filter5509"
       x="-0.11089286"
       width="1.2217857"
       y="-0.14113636"
       height="1.2822727">
      <feGaussianBlur
         inkscape:collect="always"
         stdDeviation="2.5875"
         id="feGaussianBlur5511" />
    </filter>
    <filter
       inkscape:collect="always"
       style="color-interpolation-filters:sRGB"
       id="filter5513"
       x="-2.07"
       width="5.14"
       y="-0.18264706"
       height="1.3652941">
      <feGaussianBlur
         inkscape:collect="always"
         stdDeviation="2.5875"
         id="feGaussianBlur5515" />
    </filter>
    <filter
       inkscape:collect="always"
       style="color-interpolation-filters:sRGB"
       id="filter5517"
       x="-0.15146341"
       width="1.3029268"
       y="-0.15525"
       height="1.3105">
      <feGaussianBlur
         inkscape:collect="always"
         stdDeviation="2.5875"
         id="feGaussianBlur5519" />
    </filter>
    <filter
       inkscape:collect="always"
       style="color-interpolation-filters:sRGB"
       id="filter5521"
       x="-0.10180328"
       width="1.2036066"
       y="-0.29571429"
       height="1.5914286">
      <feGaussianBlur
         inkscape:collect="always"
         stdDeviation="2.5875"
         id="feGaussianBlur5523" />
    </filter>
    <filter
       inkscape:collect="always"
       style="color-interpolation-filters:sRGB"
       id="filter5525"
       x="-0.091323529"
       width="1.1826471"
       y="-1.035"
       height="3.07">
      <feGaussianBlur
         inkscape:collect="always"
         stdDeviation="2.5875"
         id="feGaussianBlur5527" />
    </filter>
  </defs>
  <sodipodi:namedview
     id="base"
     pagecolor="#ffffff"
     bordercolor="#666666"
     borderopacity="1.0"
     inkscape:pageopacity="0.0"
     inkscape:pageshadow="2"
     inkscape:zoom="0.5"
     inkscape:cx="530.31317"
     inkscape:cy="613.09431"
     inkscape:document-units="px"
     inkscape:current-layer="layer9"
     showgrid="false"
     inkscape:snap-bbox="true"
     inkscape:window-width="1600"
     inkscape:window-height="838"
     inkscape:window-x="-8"
     inkscape:window-y="-8"
     inkscape:window-maximized="1"
     showguides="false" />
  <metadata
     id="metadata3881">
    <rdf:RDF>
      <cc:Work
         rdf:about="">
        <dc:format>image/svg+xml</dc:format>
        <dc:type
           rdf:resource="http://purl.org/dc/dcmitype/StillImage" />
        <dc:title />
      </cc:Work>
    </rdf:RDF>
  </metadata>
  <g
     inkscape:groupmode="layer"
     id="layer8"
     inkscape:label="Arc-en-ciel">
    <g
       inkscape:groupmode="layer"
       id="layer21"
       inkscape:label="Arc-en-ciel 4" />
    <g
       inkscape:groupmode="layer"
       id="layer20"
       inkscape:label="Arc-en-ciel 3">
      <path
         transform="matrix(2.0863869,0,0,2.0863869,-43.009238,16.075324)"
         id="path4000"
         d="m 158.403,187.091 c 13.839,4.621 25.807,5.878 41.517,13.861 24.633,12.516 63.404,36.618 87.703,62.349 24.588,26.038 48.034,69.559 58.601,93.312 5.88,13.218 10.453,22.789 9.309,32.824 -1.056,9.265 -9.352,16.985 -14.028,25.477 L 258.5322,290.9686 160.24699,214.035 Z"
         inkscape:connector-curvature="0"
         style="opacity:1;fill:#008000;stroke:#ffffff;stroke-width:2;stroke-linecap:round;stroke-linejoin:round" />
    </g>
    <g
       inkscape:groupmode="layer"
       id="layer19"
       inkscape:label="Arc-en-ciel 2">
      <path
         transform="matrix(2.0863869,0,0,2.0863869,-43.009238,16.075324)"
         id="path4002"
         d="m 162.72843,208.275 c 9.339,3.256 18.46757,3.92 29.71157,9.766 20.648,10.735 58.768,34.803 81.217,58.411 22.194,23.339 35.351,54.768 53.027,82.152 l -36.94424,-8.81898 -34.03012,-59.19324 -87.47179,-60.15183 z"
         inkscape:connector-curvature="0"
         style="opacity:1;fill:#0000ff;stroke:#ffffff;stroke-width:2;stroke-linecap:round;stroke-linejoin:round"
         sodipodi:nodetypes="cccccccc" />
    </g>
    <g
       inkscape:groupmode="layer"
       id="layer18"
       inkscape:label="Arc-en-ciel 1">
      <path
         transform="matrix(2.0863869,0,0,2.0863869,-43.009238,16.075324)"
         id="path3998"
         d="m 168.68216,250.07135 c 2.912,1.482 6.72284,2.16565 10.89184,4.68565 12.343,7.459 53.55,33.285 70.084,49.659 11.58,11.468 18.38019,24.91784 26.61119,36.29784 l 28.258,7.163 C 291.47519,328.82884 280.569,306.039 263.453,288.576 c -19.906,-20.309 -59.265,-45.303 -76.206,-54.498 -7.646,-4.15 -14.00184,-4.88465 -19.92384,-7.20765 z"
         inkscape:connector-curvature="0"
         style="opacity:1;fill:#800080;stroke:#ffffff;stroke-width:2;stroke-linecap:round;stroke-linejoin:round"
         sodipodi:nodetypes="ccsccsscc" />
    </g>
  </g>
  <g
     inkscape:label="Sheets"
     inkscape:groupmode="layer"
     id="layer2"
     style="opacity:1">
    <g
       inkscape:groupmode="layer"
       id="layer17"
       inkscape:label="Sheet 6">
      <path
         id="path3888-3"
         d="m 111.48295,401.10368 -16.235189,-65.9904 61.884319,-19.54318 16.32074,73.35899 z"
         inkscape:connector-curvature="0"
         style="opacity:1;fill:#0000cc;stroke:#ffffff;stroke-width:4.17277384;stroke-linecap:round;stroke-linejoin:round"
         sodipodi:nodetypes="ccccc" />
    </g>
    <g
       inkscape:groupmode="layer"
       id="layer16"
       inkscape:label="Sheet 5">
      <path
         transform="matrix(2.0863869,0,0,2.0863869,-43.009238,16.075324)"
         id="path3894"
         d="M 94.613215,134.22506 119.571,129.545 l 8.69657,30.595 -26.31387,5.76914 z"
         inkscape:connector-curvature="0"
         style="opacity:1;fill:#0000cc;stroke:#ffffff;stroke-width:2;stroke-linecap:round;stroke-linejoin:round"
         sodipodi:nodetypes="ccccc" />
      <path
         transform="matrix(2.0863869,0,0,2.0863869,-43.009238,16.075324)"
         id="path3984"
         d="m 100.839,158.626 18.62,-5.394"
         inkscape:connector-curvature="0"
         style="opacity:1;fill:#0000ff;stroke:#ffffff;stroke-width:2;stroke-linecap:round;stroke-linejoin:round" />
      <path
         transform="matrix(2.0863869,0,0,2.0863869,-43.009238,16.075324)"
         id="path3986"
         d="m 118.645,139.48 -1.78,0.439"
         inkscape:connector-curvature="0"
         style="opacity:1;fill:#0000ff;stroke:#ffffff;stroke-width:2;stroke-linecap:round;stroke-linejoin:round" />
      <path
         transform="matrix(2.0863869,0,0,2.0863869,-43.009238,16.075324)"
         id="path3988"
         d="m 119.545,145.143 -2.057,0.935"
         inkscape:connector-curvature="0"
         style="opacity:1;fill:#0000ff;stroke:#ffffff;stroke-width:2;stroke-linecap:round;stroke-linejoin:round" />
      <path
         transform="matrix(2.0863869,0,0,2.0863869,-43.009238,16.075324)"
         id="path3990"
         d="m 106.685,151.782 -4.901,1.63"
         inkscape:connector-curvature="0"
         style="opacity:1;fill:#0000ff;stroke:#ffffff;stroke-width:2;stroke-linecap:round;stroke-linejoin:round" />
    </g>
    <g
       id="g4053"
       transform="matrix(2.0863869,0,0,2.0863869,-43.009238,16.075324)"
       style="fill:#0000cc" />
    <g
       inkscape:groupmode="layer"
       id="layer15"
       inkscape:label="Sheet 4">
      <path
         transform="matrix(2.0863869,0,0,2.0863869,-43.009238,16.075324)"
         id="path3896"
         d="M 92.760509,115.95391 113.179,114.378 l 4.619,35.423 -22.58726,2.74 z"
         inkscape:connector-curvature="0"
         style="opacity:1;fill:#0000cc;stroke:#ffffff;stroke-width:2;stroke-linecap:round;stroke-linejoin:round"
         sodipodi:nodetypes="ccccc" />
      <path
         transform="matrix(2.0863869,0,0,2.0863869,-43.009238,16.075324)"
         id="path3972"
         d="m 100.48,121.008 8.633,-0.899"
         inkscape:connector-curvature="0"
         style="opacity:1;fill:#0000ff;stroke:#ffffff;stroke-width:2;stroke-linecap:round;stroke-linejoin:round" />
      <path
         transform="matrix(2.0863869,0,0,2.0863869,-43.009238,16.075324)"
         id="path3974"
         d="m 99.31,127.749 6.47,-0.539"
         inkscape:connector-curvature="0"
         style="opacity:1;fill:#0000ff;stroke:#ffffff;stroke-width:2;stroke-linecap:round;stroke-linejoin:round" />
      <path
         transform="matrix(2.0863869,0,0,2.0863869,-43.009238,16.075324)"
         id="path3976"
         d="m 100.839,133.412 10.972,-1"
         inkscape:connector-curvature="0"
         style="opacity:1;fill:#0000ff;stroke:#ffffff;stroke-width:2;stroke-linecap:round;stroke-linejoin:round" />
      <path
         transform="matrix(2.0863869,0,0,2.0863869,-43.009238,16.075324)"
         id="path3978"
         d="m 107.854,138.985 3.091,-0.539"
         inkscape:connector-curvature="0"
         style="opacity:1;fill:#0000ff;stroke:#ffffff;stroke-width:2;stroke-linecap:round;stroke-linejoin:round" />
      <path
         transform="matrix(2.0863869,0,0,2.0863869,-43.009238,16.075324)"
         id="path3980"
         d="m 98.681,140.256 4.39,-0.57"
         inkscape:connector-curvature="0"
         style="opacity:1;fill:#0000ff;stroke:#ffffff;stroke-width:2;stroke-linecap:round;stroke-linejoin:round" />
      <path
         transform="matrix(2.0863869,0,0,2.0863869,-43.009238,16.075324)"
         id="path3982"
         d="m 100.839,145.637 9.353,-1.168"
         inkscape:connector-curvature="0"
         style="opacity:1;fill:#0000ff;stroke:#ffffff;stroke-width:2;stroke-linecap:round;stroke-linejoin:round" />
    </g>
    <g
       inkscape:groupmode="layer"
       id="layer14"
       inkscape:label="Sheet 3">
      <path
         transform="matrix(2.0863869,0,0,2.0863869,-43.009238,16.075324)"
         id="path3890"
         d="m 58.138,146.419 4.048,-46.693 38.632,2.981 -4.176115,48.64858 z"
         inkscape:connector-curvature="0"
         style="opacity:1;fill:#0000cc;stroke:#ffffff;stroke-width:2;stroke-linecap:round;stroke-linejoin:round"
         sodipodi:nodetypes="ccccc" />
      <path
         transform="matrix(2.0863869,0,0,2.0863869,-43.009238,16.075324)"
         id="path3966"
         d="m 68.404,107.172 24.003,1.633"
         inkscape:connector-curvature="0"
         style="opacity:1;fill:#0000ff;stroke:#ffffff;stroke-width:2;stroke-linecap:round;stroke-linejoin:round" />
      <path
         transform="matrix(2.0863869,0,0,2.0863869,-43.009238,16.075324)"
         id="path3968"
         d="m 67.879,111.808 15.5,1.607"
         inkscape:connector-curvature="0"
         style="opacity:1;fill:#0000ff;stroke:#ffffff;stroke-width:2;stroke-linecap:round;stroke-linejoin:round" />
      <path
         transform="matrix(2.0863869,0,0,2.0863869,-43.009238,16.075324)"
         id="path3970"
         d="m 66.951,117.337 15.235,0.938"
         inkscape:connector-curvature="0"
         style="opacity:1;fill:#0000ff;stroke:#ffffff;stroke-width:2;stroke-linecap:round;stroke-linejoin:round" />
    </g>
    <g
       inkscape:groupmode="layer"
       id="layer13"
       inkscape:label="Sheet 2">
      <path
         transform="matrix(2.0863869,0,0,2.0863869,-43.009238,16.075324)"
         id="path3892"
         d="m 100.779,162.033 -4.826,-45.722 -31.873,4.685 5.503231,47.34376 z"
         inkscape:connector-curvature="0"
         style="opacity:1;fill:#0000cc;stroke:#ffffff;stroke-width:2;stroke-linecap:round;stroke-linejoin:round"
         sodipodi:nodetypes="ccccc" />
      <path
         transform="matrix(2.0863869,0,0,2.0863869,-43.009238,16.075324)"
         id="path3950"
         d="m 70.218,125.724 20.254,-3.395"
         inkscape:connector-curvature="0"
         style="opacity:1;fill:#0000ff;stroke:#ffffff;stroke-width:2;stroke-linecap:round;stroke-linejoin:round" />
      <path
         transform="matrix(2.0863869,0,0,2.0863869,-43.009238,16.075324)"
         id="path3952"
         d="m 71.202,132.513 6.79,-1.519"
         inkscape:connector-curvature="0"
         style="opacity:1;fill:#0000ff;stroke:#ffffff;stroke-width:2;stroke-linecap:round;stroke-linejoin:round" />
      <path
         transform="matrix(2.0863869,0,0,2.0863869,-43.009238,16.075324)"
         id="path3954"
         d="m 76.005,137.417 17.385,-3.52"
         inkscape:connector-curvature="0"
         style="opacity:1;fill:#0000ff;stroke:#ffffff;stroke-width:2;stroke-linecap:round;stroke-linejoin:round" />
      <path
         transform="matrix(2.0863869,0,0,2.0863869,-43.009238,16.075324)"
         id="path3956"
         d="m 74.458,145.395 13.623,-2.941"
         inkscape:connector-curvature="0"
         style="opacity:1;fill:#0000ff;stroke:#ffffff;stroke-width:2;stroke-linecap:round;stroke-linejoin:round" />
      <path
         transform="matrix(2.0863869,0,0,2.0863869,-43.009238,16.075324)"
         id="path3958"
         d="m 77.514,149.991 17.31,-4.225"
         inkscape:connector-curvature="0"
         style="opacity:1;fill:#0000ff;stroke:#ffffff;stroke-width:2;stroke-linecap:round;stroke-linejoin:round" />
      <path
         transform="matrix(2.0863869,0,0,2.0863869,-43.009238,16.075324)"
         id="path3960"
         d="M 78.143,156.278 95.881,151.5"
         inkscape:connector-curvature="0"
         style="opacity:1;fill:#0000ff;stroke:#ffffff;stroke-width:2;stroke-linecap:round;stroke-linejoin:round" />
      <path
         transform="matrix(2.0863869,0,0,2.0863869,-43.009238,16.075324)"
         id="path3964"
         d="m 89.843,159.673 5.453,-1.285"
         inkscape:connector-curvature="0"
         style="opacity:1;fill:#0000ff;stroke:#ffffff;stroke-width:2;stroke-linecap:round;stroke-linejoin:round" />
      <path
         transform="matrix(2.0863869,0,0,2.0863869,-43.009238,16.075324)"
         id="path3962"
         d="m 78.037,162.548 6.568,-1.62"
         inkscape:connector-curvature="0"
         style="display:inline;opacity:1;fill:#0000ff;stroke:#ffffff;stroke-width:2;stroke-linecap:round;stroke-linejoin:round" />
    </g>
    <g
       inkscape:groupmode="layer"
       id="layer12"
       inkscape:label="Sheet 1">
      <path
         transform="matrix(2.0863869,0,0,2.0863869,-43.009238,16.075324)"
         id="path3888"
         d="M 50.663487,183.19803 42.882,151.569 l 29.661,-9.367 7.822487,35.16078 z"
         inkscape:connector-curvature="0"
         style="opacity:1;fill:#0000cc;stroke:#ffffff;stroke-width:2;stroke-linecap:round;stroke-linejoin:round"
         sodipodi:nodetypes="ccccc" />
      <path
         transform="matrix(2.0863869,0,0,2.0863869,-43.009238,16.075324)"
         id="path3942"
         d="m 49.713,156.278 19.625,-6.79"
         inkscape:connector-curvature="0"
         style="opacity:1;fill:#0000ff;stroke:#ffffff;stroke-width:2;stroke-linecap:round;stroke-linejoin:round" />
      <path
         transform="matrix(2.0863869,0,0,2.0863869,-43.009238,16.075324)"
         id="path3944"
         d="m 53.11,162.565 18.24,-7.293"
         inkscape:connector-curvature="0"
         style="opacity:1;fill:#0000ff;stroke:#ffffff;stroke-width:2;stroke-linecap:round;stroke-linejoin:round" />
      <path
         transform="matrix(2.0863869,0,0,2.0863869,-43.009238,16.075324)"
         id="path3946"
         d="m 54.116,168.852 5.898,-2.005"
         inkscape:connector-curvature="0"
         style="opacity:1;fill:#0000ff;stroke:#ffffff;stroke-width:2;stroke-linecap:round;stroke-linejoin:round" />
      <path
         transform="matrix(2.0863869,0,0,2.0863869,-43.009238,16.075324)"
         id="path3948"
         d="m 68.709,162.565 2.453,-0.566"
         inkscape:connector-curvature="0"
         style="opacity:1;fill:#0000ff;stroke:#ffffff;stroke-width:2;stroke-linecap:round;stroke-linejoin:round" />
    </g>
  </g>
  <g
     inkscape:label="SockBody"
     inkscape:groupmode="layer"
     id="layer1"
     style="opacity:1">
    <g
       id="g4052"
       transform="matrix(2.0863869,0,0,2.0863869,-43.009238,16.075324)"
       style="fill:#ff0000" />
    <path
       style="opacity:1;fill:#000080;stroke:#ffffff;stroke-width:4.17277384;stroke-linecap:round;stroke-linejoin:round"
       d="M 380.67969 893.55664 L 380.625 892.84375 C 377.50377 887.49217 374.11394 881.31026 371.25977 876.78906 C 369.09201 873.35487 367.24059 871.0452 365.2168 867.92188 C 363.024 864.53984 361.278 860.98681 358.60742 857.1875 C 356.94874 854.82988 355.2954 852.44597 353.36914 849.94727 C 351.44288 847.44856 349.24387 844.83524 346.49609 842.01758 C 344.33512 839.80236 341.71268 837.21957 338.80664 834.47852 C 335.9006 831.73746 332.71056 828.83855 329.41211 825.98828 C 326.11366 823.13802 322.70733 820.33582 319.36914 817.79297 C 316.03095 815.25012 312.76159 812.96529 309.73633 811.14648 C 307.29317 809.67767 304.816 808.37411 302.33594 807.20312 C 299.85588 806.03214 297.37183 804.99434 294.91406 804.05859 C 289.99853 802.1871 285.18792 800.72405 280.7168 799.41797 C 277.07709 798.35391 273.90016 797.47738 270.67383 796.83008 C 267.44749 796.18278 264.17085 795.7635 260.33398 795.61328 C 257.87831 795.51731 255.13518 795.53241 252.25195 795.64844 C 249.36873 795.76446 246.34569 795.98314 243.33203 796.29492 C 240.31838 796.60671 237.31377 797.01064 234.4668 797.50195 C 231.61982 797.99326 228.93005 798.57196 226.54688 799.22656 C 224.65817 799.74451 222.90638 800.37183 221.23828 801.07031 C 219.57018 801.7688 217.98677 802.53829 216.4375 803.33398 C 213.3747 804.90702 210.44046 806.5845 207.25 808.05273 L 243.40039 871.69141 L 313.28516 909.01953 L 380.67969 893.55664 z "
       id="path3567" />
    <path
       style="opacity:1;fill:#800080;stroke:#ffffff;stroke-width:4.17277384;stroke-linecap:round;stroke-linejoin:round"
       d="M 443.60742 879.11914 C 442.84774 876.96422 442.118 874.69515 441.37305 872.48242 C 440.59169 870.16158 439.79307 867.91302 438.91992 865.95703 C 437.48657 862.75025 436.22687 860.78317 434.32617 857.51172 C 432.95542 855.15202 431.39176 852.36431 429.63477 849.43555 C 427.87777 846.50678 425.92892 843.43697 423.78516 840.50977 C 421.2116 836.99525 418.08161 833.13315 414.8125 829.34375 C 411.54339 825.55435 408.13389 821.83611 404.99805 818.60742 C 402.22941 815.75742 399.53356 813.37717 396.79883 811.00781 C 394.0641 808.63846 391.29022 806.28144 388.36719 803.48047 C 384.92674 800.18398 381.52191 796.2885 377.94141 792.40234 C 376.15116 790.45927 374.31805 788.51956 372.41406 786.65625 C 370.51007 784.79294 368.53506 783.00708 366.46484 781.375 C 364.29135 779.66155 362.00567 777.94805 359.64062 776.27734 C 357.27558 774.60664 354.83086 772.97791 352.3418 771.4375 C 349.85274 769.89709 347.31896 768.44363 344.77344 767.12109 C 342.22792 765.79855 339.67116 764.60696 337.13672 763.58984 C 334.75824 762.6348 332.44443 761.8268 330.13281 761.13086 C 327.82119 760.43492 325.51155 759.85139 323.13867 759.34961 C 318.39292 758.34606 313.39619 757.66536 307.63672 757.04883 C 303.68041 756.62477 299.19201 756.3191 294.42188 756.12695 C 289.65174 755.93481 284.60015 755.85725 279.51562 755.88672 C 274.4311 755.91619 269.3155 756.05414 264.41602 756.29492 C 259.51653 756.5357 254.83416 756.87852 250.61914 757.32031 C 243.76953 758.03803 237.15842 758.89538 230.95898 760.09766 C 227.85927 760.6988 224.86237 761.3864 221.99023 762.18555 C 219.11809 762.9847 216.37073 763.89495 213.76953 764.94336 C 211.60334 765.81703 209.59858 766.83487 207.69727 767.94141 C 205.79595 769.04794 203.99698 770.24468 202.23828 771.47656 C 198.72089 773.94032 195.36593 776.54713 191.68555 778.86719 L 190.9668 779.38281 L 191.02344 779.48438 L 207.25 808.05273 C 210.44046 806.5845 213.3747 804.90702 216.4375 803.33398 C 217.98677 802.53829 219.57018 801.7688 221.23828 801.07031 C 222.90638 800.37183 224.65816 799.74451 226.54688 799.22656 C 228.93005 798.57196 231.61982 797.99326 234.4668 797.50195 C 237.31377 797.01064 240.31838 796.60671 243.33203 796.29492 C 246.34569 795.98314 249.36873 795.76446 252.25195 795.64844 C 255.13518 795.53241 257.87831 795.51731 260.33398 795.61328 C 264.17085 795.7635 267.44749 796.18278 270.67383 796.83008 C 273.90016 797.47738 277.07709 798.35391 280.7168 799.41797 C 285.18792 800.72405 289.99853 802.1871 294.91406 804.05859 C 297.37183 804.99434 299.85588 806.03214 302.33594 807.20312 C 304.816 808.37412 307.29317 809.67767 309.73633 811.14648 C 312.76159 812.96529 316.03095 815.25012 319.36914 817.79297 C 322.70733 820.33582 326.11366 823.13802 329.41211 825.98828 C 332.71056 828.83855 335.9006 831.73746 338.80664 834.47852 C 341.71268 837.21957 344.33512 839.80236 346.49609 842.01758 C 349.24387 844.83524 351.44288 847.44856 353.36914 849.94727 C 355.2954 852.44597 356.94874 854.82988 358.60742 857.1875 C 361.278 860.98681 363.024 864.53983 365.2168 867.92188 C 367.24059 871.0452 369.09201 873.35487 371.25977 876.78906 C 374.11394 881.31026 377.50377 887.49217 380.625 892.84375 L 380.67969 893.55664 L 443.60742 879.11914 z "
       id="path3570" />
    <path
       style="opacity:1;fill:#008000;stroke:#ffffff;stroke-width:4.17277384;stroke-linecap:round;stroke-linejoin:round"
       d="M 518.68164 899.09766 C 516.31722 892.26896 514.02986 885.04618 511.75977 877.72266 C 509.48593 870.38705 507.23018 862.95096 504.9375 855.71484 C 502.64482 848.47873 500.31377 841.44251 497.88867 834.90234 C 496.67612 831.63226 495.44078 828.48622 494.17383 825.50195 C 492.90688 822.51769 491.60899 819.6942 490.27344 817.07031 C 488.41134 813.41235 486.51955 810.07841 484.5918 806.9707 C 482.66404 803.863 480.69994 800.98268 478.69727 798.22852 C 474.69192 792.72019 470.52852 787.72165 466.16797 782.44727 C 462.00458 777.41386 457.82416 772.59382 453.41797 768.00586 C 451.21487 765.71188 448.95522 763.47636 446.61328 761.30078 C 444.27134 759.1252 441.84537 757.00951 439.3125 754.95703 C 436.64975 752.79971 433.89966 750.65446 431.06445 748.5625 C 428.22925 746.47054 425.30881 744.43137 422.3125 742.48438 C 419.31619 740.53738 416.24373 738.68335 413.09766 736.96094 C 409.95158 735.23853 406.73371 733.64869 403.44922 732.23047 C 400.00512 730.74287 396.47543 729.41252 392.86523 728.2207 C 389.25504 727.02889 385.56307 725.97429 381.79102 725.03711 C 378.01896 724.09993 374.16796 723.28032 370.23828 722.55664 C 366.3086 721.83296 362.29986 721.20562 358.2168 720.6543 C 353.55529 720.02525 348.63547 719.58077 343.57422 719.2832 C 338.51297 718.98563 333.31064 718.83561 328.08398 718.79492 C 322.85732 718.75424 317.60696 718.82323 312.44922 718.96484 C 307.29147 719.10646 302.22755 719.32099 297.37305 719.57031 C 288.39637 720.03036 279.30917 720.83411 270.55469 721.90234 C 261.80021 722.97057 253.37839 724.30273 245.72656 725.81641 C 239.44028 727.05989 233.78615 728.44096 228.30078 729.99219 C 222.81541 731.54342 217.49832 733.26372 211.88281 735.18945 C 206.08474 737.17778 200.31352 739.55471 194.54883 742.02734 C 188.78414 744.49997 183.02485 747.06996 177.25391 749.44531 L 175.2207 750.74219 L 190.9668 779.38281 L 191.68555 778.86719 C 195.36593 776.54713 198.72089 773.94032 202.23828 771.47656 C 203.99698 770.24468 205.79595 769.04794 207.69727 767.94141 C 209.59858 766.83487 211.60334 765.81703 213.76953 764.94336 C 216.37073 763.89495 219.11809 762.9847 221.99023 762.18555 C 224.86237 761.3864 227.85927 760.6988 230.95898 760.09766 C 237.15842 758.89538 243.76953 758.03803 250.61914 757.32031 C 254.83416 756.87852 259.51653 756.5357 264.41602 756.29492 C 269.3155 756.05414 274.4311 755.91619 279.51562 755.88672 C 284.60016 755.85725 289.65173 755.93481 294.42188 756.12695 C 299.19201 756.3191 303.68041 756.62477 307.63672 757.04883 C 313.39619 757.66536 318.39292 758.34606 323.13867 759.34961 C 325.51155 759.85139 327.82119 760.43492 330.13281 761.13086 C 332.44443 761.8268 334.75824 762.6348 337.13672 763.58984 C 339.67116 764.60696 342.22792 765.79855 344.77344 767.12109 C 347.31896 768.44363 349.85274 769.89709 352.3418 771.4375 C 354.83086 772.97791 357.27558 774.60664 359.64062 776.27734 C 362.00568 777.94805 364.29135 779.66155 366.46484 781.375 C 368.53506 783.00708 370.51007 784.79294 372.41406 786.65625 C 374.31805 788.51956 376.15116 790.45927 377.94141 792.40234 C 381.52191 796.2885 384.92674 800.18398 388.36719 803.48047 C 391.29022 806.28144 394.0641 808.63846 396.79883 811.00781 C 399.53356 813.37717 402.22941 815.75742 404.99805 818.60742 C 408.13389 821.83611 411.54339 825.55435 414.8125 829.34375 C 418.08161 833.13315 421.2116 836.99525 423.78516 840.50977 C 425.92892 843.43697 427.87777 846.50678 429.63477 849.43555 C 431.39176 852.36431 432.95542 855.15202 434.32617 857.51172 C 436.22687 860.78317 437.48657 862.75025 438.91992 865.95703 C 439.79307 867.91302 440.59169 870.16158 441.37305 872.48242 C 442.118 874.69515 442.84774 876.96422 443.60742 879.11914 L 448.22656 878.06055 L 518.68164 899.09766 z "
       id="path3573" />
    <path
       style="opacity:1;fill:#ffff00;stroke:#ffffff;stroke-width:4.17277384;stroke-linecap:round;stroke-linejoin:round"
       d="M 633.07031 761.29883 L 633.05078 761.32227 C 634.76058 764.04291 636.46378 766.32108 638.16992 768.82031 C 639.87606 771.31954 641.58601 774.04016 643.3125 777.64648 C 644.75941 780.66862 646.33868 784.28364 647.95703 788.2793 C 649.57538 792.27496 651.23204 796.65012 652.83008 801.19727 C 654.42812 805.74442 655.96754 810.46207 657.35352 815.13867 C 658.7395 819.81528 659.97291 824.45192 660.95508 828.83594 C 661.94142 833.23613 662.68085 837.69456 663.26758 842.19141 C 663.85431 846.68825 664.28852 851.22251 664.66016 855.77148 C 665.40343 864.86944 665.90063 874.02714 666.89062 883.06641 L 666.97852 883.49023 L 669.49414 882.40234 L 676.10156 827.92773 L 665.44922 778.72461 L 633.07031 761.29883 z "
       id="path3576" />
    <path
       style="opacity:1;fill:#00ffff;stroke:#ffffff;stroke-width:4.17277384;stroke-linecap:round;stroke-linejoin:round"
       d="M 596.30469 741.50977 L 596.17188 741.74219 C 598.03085 744.5828 600.0041 747.2461 601.91992 749.99805 C 603.83575 752.74999 605.69475 755.59012 607.32422 758.78125 C 609.16963 762.39383 610.61757 765.85292 612.04492 769.72656 C 613.47227 773.6002 614.87776 777.88799 616.63867 783.1582 C 619.76095 792.50313 624.30045 807.15484 628.62109 822 C 630.78142 829.42258 632.88678 836.89286 634.73438 843.77344 C 636.58197 850.65402 638.17023 856.94533 639.29688 862.00586 C 640.67702 868.2066 641.486 873.27425 642.15234 878.05859 C 642.81868 882.84294 643.34283 887.34337 644.15234 892.41016 L 644.55273 893.19141 L 666.97852 883.49023 L 666.89062 883.06641 C 665.90063 874.02714 665.40343 864.86944 664.66016 855.77148 C 664.28852 851.22251 663.85431 846.68825 663.26758 842.19141 C 662.68085 837.69456 661.94142 833.23613 660.95508 828.83594 C 659.97291 824.45192 658.7395 819.81528 657.35352 815.13867 C 655.96754 810.46207 654.42812 805.74442 652.83008 801.19727 C 651.23204 796.65012 649.57538 792.27496 647.95703 788.2793 C 646.33868 784.28364 644.75941 780.66862 643.3125 777.64648 C 641.58601 774.04016 639.87606 771.31954 638.16992 768.82031 C 636.46378 766.32108 634.76058 764.04291 633.05078 761.32227 L 633.07031 761.29883 L 596.30469 741.50977 z "
       id="path3579" />
    <path
       style="opacity:1;fill:#00ff00;stroke:#ffffff;stroke-width:4.17277384;stroke-linecap:round;stroke-linejoin:round"
       d="M 537.62109 724.70898 C 539.23469 726.19063 540.78652 727.47891 542.36914 728.86328 C 543.95766 730.25281 545.57805 731.74008 547.32227 733.62305 C 549.78733 736.28319 552.52404 739.24515 555.3125 742.64648 C 556.70673 744.34715 558.11372 746.1583 559.50586 748.0957 C 560.898 750.03311 562.27461 752.0982 563.60938 754.30664 C 565.55232 757.5202 567.58431 761.3362 569.62891 765.49609 C 571.6735 769.65599 573.73067 774.15956 575.72656 778.74609 C 579.71834 787.91915 583.46256 797.42419 586.35742 805.18555 C 588.69626 811.45514 590.56787 816.73803 592.23438 822.16211 C 593.90088 827.58619 595.36197 833.15301 596.88086 839.99219 C 597.9277 844.70742 598.86368 849.91458 599.72852 855.43164 C 600.59336 860.9487 601.38742 866.7758 602.1543 872.72461 C 603.68805 884.62223 605.1097 897.01182 606.75586 908.41602 L 606.46875 909.66602 L 644.55273 893.19141 L 644.15234 892.41016 C 643.34283 887.34337 642.81868 882.84294 642.15234 878.05859 C 641.486 873.27425 640.67702 868.2066 639.29688 862.00586 C 638.17022 856.94533 636.58197 850.65402 634.73438 843.77344 C 632.88677 836.89286 630.78142 829.42258 628.62109 822 C 624.30045 807.15484 619.76095 792.50313 616.63867 783.1582 C 614.87776 777.88799 613.47227 773.6002 612.04492 769.72656 C 610.61757 765.85292 609.16963 762.39383 607.32422 758.78125 C 605.69475 755.59012 603.83575 752.74999 601.91992 749.99805 C 600.0041 747.2461 598.03085 744.5828 596.17188 741.74219 L 596.30469 741.50977 L 588.51758 737.31836 L 537.62109 724.70898 z "
       id="path3582" />
    <path
       style="opacity:1;fill:#ff00ff;stroke:#ffffff;stroke-width:4.17277384;stroke-linecap:round;stroke-linejoin:round"
       d="M 443.27539 713.68555 L 443.4082 713.7832 C 447.91376 716.96599 452.67382 720.03306 457.30664 723.1582 C 459.62305 724.72078 461.90784 726.29871 464.11328 727.91211 C 466.31872 729.52551 468.44408 731.1751 470.44336 732.88281 C 474.11227 736.01865 477.3514 739.06232 480.48438 742.29883 C 483.61735 745.53534 486.64603 748.96551 489.89453 752.86914 C 493.83154 757.59898 498.02763 763.0808 502.10156 768.81836 C 506.17549 774.55592 510.12646 780.54901 513.57422 786.29492 C 515.24489 789.07764 516.84807 792.01041 518.39062 794.99609 C 519.93318 797.98178 521.41445 801.01945 522.8418 804.01367 C 525.6965 810.00212 528.33336 815.81386 530.80469 820.66992 C 532.63236 824.26164 534.31447 827.17597 535.9043 830.07031 C 537.49412 832.96465 538.99239 835.83913 540.45703 839.35156 C 542.2096 843.55563 543.98814 848.08764 545.59961 852.88477 C 546.40535 855.28333 547.16958 857.74872 547.86719 860.27148 C 548.56479 862.79425 549.19739 865.37493 549.73828 868.00586 C 550.36889 871.07233 550.84105 874.30375 551.21484 877.63867 C 551.58863 880.9736 551.86411 884.41118 552.09961 887.89062 C 552.57061 894.84951 552.88267 901.9743 553.51172 908.76758 C 553.51172 908.76758 553.40465 909.39589 553.39258 909.46094 L 585.07422 918.91992 L 606.46875 909.66602 L 606.75586 908.41602 C 605.1097 897.01182 603.68805 884.62223 602.1543 872.72461 C 601.38742 866.7758 600.59336 860.9487 599.72852 855.43164 C 598.86368 849.91458 597.9277 844.70742 596.88086 839.99219 C 595.36197 833.15301 593.90088 827.58619 592.23438 822.16211 C 590.56786 816.73803 588.69626 811.45514 586.35742 805.18555 C 583.46256 797.42419 579.71834 787.91915 575.72656 778.74609 C 573.73067 774.15956 571.6735 769.65599 569.62891 765.49609 C 567.58431 761.3362 565.55232 757.5202 563.60938 754.30664 C 562.2746 752.0982 560.898 750.03311 559.50586 748.0957 C 558.11372 746.1583 556.70673 744.34715 555.3125 742.64648 C 552.52404 739.24515 549.78733 736.28319 547.32227 733.62305 C 545.57805 731.74008 543.95766 730.25281 542.36914 728.86328 C 540.78652 727.47891 539.23469 726.19063 537.62109 724.70898 L 485.2168 711.72461 L 443.27539 713.68555 z "
       id="path3585" />
    <path
       style="opacity:1;fill:#ff0000;stroke:#ffffff;stroke-width:4.17277384;stroke-linecap:round;stroke-linejoin:round"
       d="M 232.96094 335.73828 L 133.32422 366.27734 L 18.9375 391.2793 L 10.404297 416.55078 L 67.136719 530.66992 L 101.80664 604.36719 L 136.08203 680.24023 L 135.10156 677.76953 L 175.2207 750.74219 L 177.25391 749.44531 C 183.02485 747.06996 188.78414 744.49997 194.54883 742.02734 C 200.31352 739.55471 206.08474 737.17778 211.88281 735.18945 C 217.49832 733.26372 222.81541 731.54342 228.30078 729.99219 C 233.78615 728.44096 239.44028 727.05989 245.72656 725.81641 C 253.37839 724.30273 261.80021 722.97057 270.55469 721.90234 C 279.30917 720.83411 288.39637 720.03036 297.37305 719.57031 C 302.22755 719.32099 307.29147 719.10646 312.44922 718.96484 C 317.60696 718.82323 322.85732 718.75424 328.08398 718.79492 C 333.31064 718.83561 338.51297 718.98563 343.57422 719.2832 C 348.63547 719.58077 353.55529 720.02525 358.2168 720.6543 C 362.29986 721.20562 366.3086 721.83296 370.23828 722.55664 C 374.16796 723.28032 378.01896 724.09993 381.79102 725.03711 C 385.56307 725.97429 389.25504 727.02889 392.86523 728.2207 C 396.47543 729.41252 400.00512 730.74287 403.44922 732.23047 C 406.73371 733.64869 409.95158 735.23853 413.09766 736.96094 C 416.24373 738.68335 419.31619 740.53734 422.3125 742.48438 C 425.30881 744.43137 428.22925 746.47054 431.06445 748.5625 C 433.89966 750.65446 436.64975 752.79971 439.3125 754.95703 C 441.84537 757.00951 444.27134 759.1252 446.61328 761.30078 C 448.95522 763.47636 451.21487 765.71188 453.41797 768.00586 C 457.82416 772.59382 462.00458 777.41386 466.16797 782.44727 C 470.52852 787.72165 474.69192 792.72019 478.69727 798.22852 C 480.69994 800.98268 482.66404 803.863 484.5918 806.9707 C 486.51955 810.07841 488.41134 813.41235 490.27344 817.07031 C 491.60899 819.6942 492.90688 822.51769 494.17383 825.50195 C 495.44078 828.48622 496.67612 831.63226 497.88867 834.90234 C 500.31377 841.44251 502.64482 848.47873 504.9375 855.71484 C 507.23018 862.95096 509.48593 870.38705 511.75977 877.72266 C 514.02986 885.04618 516.31722 892.26896 518.68164 899.09766 L 553.39258 909.46094 C 553.40465 909.39589 553.51172 908.76758 553.51172 908.76758 C 552.88267 901.9743 552.57061 894.84951 552.09961 887.89062 C 551.86411 884.41118 551.58863 880.9736 551.21484 877.63867 C 550.84105 874.30375 550.36889 871.07233 549.73828 868.00586 C 549.19739 865.37493 548.56479 862.79425 547.86719 860.27148 C 547.16958 857.74872 546.40535 855.28333 545.59961 852.88477 C 543.98814 848.08764 542.2096 843.55563 540.45703 839.35156 C 538.99239 835.83913 537.49412 832.96465 535.9043 830.07031 C 534.31447 827.17597 532.63236 824.26164 530.80469 820.66992 C 528.33336 815.81386 525.6965 810.00212 522.8418 804.01367 C 521.41445 801.01945 519.93318 797.98178 518.39062 794.99609 C 516.84807 792.01041 515.24489 789.07764 513.57422 786.29492 C 510.12646 780.54901 506.17549 774.55592 502.10156 768.81836 C 498.02763 763.0808 493.83154 757.59898 489.89453 752.86914 C 486.64603 748.96551 483.61735 745.53534 480.48438 742.29883 C 477.3514 739.06232 474.11227 736.01865 470.44336 732.88281 C 468.44408 731.1751 466.31872 729.52551 464.11328 727.91211 C 461.90784 726.29871 459.62305 724.72078 457.30664 723.1582 C 452.67382 720.03306 447.91376 716.96599 443.4082 713.7832 L 443.27539 713.68555 L 400.80078 715.67188 L 342.17969 678.64453 L 314.61914 588.62109 L 311.95312 495.82422 L 287.25977 407.13672 L 262.76758 358.58008 L 232.96094 335.73828 z "
       id="path3886" />
    <path
       style="fill:none;fill-rule:evenodd;stroke:#ffff00;stroke-width:4.371;stroke-linecap:round;stroke-linejoin:miter;stroke-miterlimit:4;stroke-dasharray:none;stroke-opacity:1;filter:url(#filter5505)"
       d="m 660,756.36221 23,-61"
       id="path4400"
       inkscape:connector-curvature="0"
       sodipodi:nodetypes="cc" />
    <path
       style="opacity:1;fill:none;fill-rule:evenodd;stroke:#ffff00;stroke-width:4.371;stroke-linecap:round;stroke-linejoin:miter;stroke-miterlimit:4;stroke-dasharray:none;stroke-opacity:1;filter:url(#filter5509)"
       d="m 683.5,774.86221 56,-44"
       id="path4400-9"
       inkscape:connector-curvature="0"
       sodipodi:nodetypes="cc" />
    <path
       style="opacity:1;fill:none;fill-rule:evenodd;stroke:#ffff00;stroke-width:4.371;stroke-linecap:round;stroke-linejoin:miter;stroke-miterlimit:4;stroke-dasharray:none;stroke-opacity:1;filter:url(#filter5525)"
       d="m 693.5,808.86221 68,-6"
       id="path4400-1"
       inkscape:connector-curvature="0"
       sodipodi:nodetypes="cc" />
    <path
       style="opacity:1;fill:none;fill-rule:evenodd;stroke:#ffff00;stroke-width:4.371;stroke-linecap:round;stroke-linejoin:miter;stroke-miterlimit:4;stroke-dasharray:none;stroke-opacity:1;filter:url(#filter5521)"
       d="m 758.5,860.86221 -61,-21"
       id="path4400-8"
       inkscape:connector-curvature="0"
       sodipodi:nodetypes="cc" />
    <path
       style="opacity:1;fill:none;fill-rule:evenodd;stroke:#ffff00;stroke-width:4.371;stroke-linecap:round;stroke-linejoin:miter;stroke-miterlimit:4;stroke-dasharray:none;stroke-opacity:1;filter:url(#filter5517)"
       d="m 729.5,915.86221 -41,-40"
       id="path4400-2"
       inkscape:connector-curvature="0"
       sodipodi:nodetypes="cc" />
    <path
       style="opacity:1;fill:none;fill-rule:evenodd;stroke:#ffff00;stroke-width:4.371;stroke-linecap:round;stroke-linejoin:miter;stroke-miterlimit:4;stroke-dasharray:none;stroke-opacity:1;filter:url(#filter5513)"
       d="m 668.5,938.86221 -3,-34"
       id="path4400-87"
       inkscape:connector-curvature="0"
       sodipodi:nodetypes="cc" />
  </g>
  <g
     inkscape:groupmode="layer"
     id="layer10"
     inkscape:label="Equipment">
    <g
       inkscape:groupmode="layer"
       id="layer22"
       inkscape:label="Smile">
      <path
         transform="matrix(2.0863869,0,0,2.0863869,-43.009238,16.075324)"
         id="path4028"
         d="m 63.366,268.556 c 4.256,0.299 9.401,1.202 12.77,0.898 2.26,-0.204 3.273,-0.445 5.582,-1.428 4.503,-1.916 13.565,-7.176 18.623,-11.526 4.354,-3.743 8.372,-8.492 10.507,-12.358 1.48486,-2.69106 1.69788,-5.30944 2.46912,-7.86861 0.0203,-0.0675 0.3762,-3.14276 0.40315,-3.20789 -0.14227,5.6615 0.51673,11.3275 -0.43727,16.9795 -0.998,5.913 -2.221,12.569 -5.641,17.715 -3.683,5.541 -10.244,11.087 -16.404,13.984 -5.943,2.794 -13.174,2.304 -19.761,3.456 z"
         inkscape:connector-curvature="0"
         style="opacity:1;fill:#00ff00;stroke:#ffffff;stroke-width:2;stroke-linecap:round;stroke-linejoin:round"
         sodipodi:nodetypes="cccccscscccc" />
    </g>
    <g
       inkscape:groupmode="layer"
       id="layer11"
       inkscape:label="Mask">
      <path
         transform="matrix(2.0863869,0,0,2.0863869,-43.009238,16.075324)"
         id="path4024"
         style="opacity:1;fill:#000000;stroke:#ffffff;stroke-width:2;stroke-linecap:round;stroke-linejoin:round"
         d="m 145.89,211.984 c -5.341,1.774 -10.757,2.362 -16.383,2.627 -5.913,0.279 -11.463,-0.109 -18.287,-1.186 -8.969,-1.416 -21.964,-6.408 -30.681,-7.779 -6.312,-0.992 -11.059,-1.277 -16.562,-1.054 -5.514,0.223 -11.808,0.774 -16.489,2.399 -3.897,1.353 -6.665,3.85 -10.008418,5.80077 L 51.884885,244.4707 C 56.375,240.384 59.924,235.798 65.273,231.665 c 6.444,-4.979 13.238,-11.111 23.251,-13.951 14.799,-4.197 47.102,1.429 59.221,-0.73 5.599,-0.997 9.315,-2.202 11.918,-4.219 1.818,-1.408 2.298,-3.413 3.48852,-5.13317 l -0.61167,-4.35388 C 156.982,206.177 151.572,210.097 145.89,211.984 Z"
         inkscape:connector-curvature="0"
         sodipodi:nodetypes="ccccccccscccccc" />
    </g>
  </g>
  <g
     inkscape:label="Others"
     inkscape:groupmode="layer"
     id="layer3"
     style="display:inline;opacity:1">
    <g
       id="g4054"
       transform="matrix(2.0863869,0,0,2.0863869,-43.009238,16.075324)"
       style="fill:#00ff00" />
  </g>
  <g
     inkscape:groupmode="layer"
     id="layer4"
     inkscape:label="Flying Sheets">
    <g
       inkscape:groupmode="layer"
       id="layer7"
       inkscape:label="left">
      <path
         transform="matrix(2.0863869,0,0,2.0863869,-43.009238,16.075324)"
         id="path3902"
         d="m 119.938,56.419 c 0.95,2.886 1.238,5.786 1.8685,8.6585 -3.4785,0.4535 -7.1585,0.4495 -10.4595,1.4035 -3.209,0.927 -6.503,2.326 -9.089,4.138 -2.409,1.689 -4.642,4.222 -6.072,6.193 -1.062,1.462 -1.47,2.821 -2.266,4.084 -1.045,-2.265 -1.953,-4.644 -3.014,-6.498 -0.9,-1.575 -1.723,-2.79 -2.866,-4.156 -1.296,-1.551 -3.073,-3.053 -4.6965,-4.764 1.1115,-2.42 1.9735,-4.8 3.5095,-6.889 1.64,-2.231 3.663,-4.505 6.072,-6.194 2.586,-1.812 5.862,-3.206 9.089,-4.138 3.359,-0.969 8.295,-1.303 10.721,-1.453 1.237,-0.076 1.876,-0.05365 2.9195,0.135849 1.4975,3.2535 3.2685,6.396151 4.2835,9.479151 z"
         inkscape:connector-curvature="0"
         style="opacity:1;fill:#0000ff;stroke:#ffffff;stroke-width:2;stroke-linecap:round;stroke-linejoin:round"
         sodipodi:nodetypes="ccccccccccccccc" />
      <path
         transform="matrix(2.0863869,0,0,2.0863869,-43.009238,16.075324)"
         id="path3936"
         d="m 89.662,63.731 c 0.898,-1.434 1.577,-2.981 2.693,-4.303 1.191,-1.411 2.638,-2.835 4.317,-3.851 1.802,-1.092 4.044,-1.874 6.234,-2.351 2.279,-0.495 5.579,-0.498 7.2,-0.49 0.827,0.005 1.248,0.098 1.872,0.147"
         inkscape:connector-curvature="0"
         style="opacity:1;fill:#0000ff;stroke:#ffffff;stroke-width:1.5;stroke-linecap:round;stroke-linejoin:round" />
      <path
         transform="matrix(2.0863869,0,0,2.0863869,-43.009238,16.075324)"
         id="path3938"
         d="m 92.376,67.812 c 0.902,-1.431 1.587,-2.975 2.707,-4.293 1.196,-1.408 2.649,-2.826 4.331,-3.837 1.806,-1.085 4.051,-1.859 6.242,-2.328 2.281,-0.488 5.581,-0.479 7.202,-0.465 0.827,0.007 1.248,0.103 1.872,0.153"
         inkscape:connector-curvature="0"
         style="opacity:1;fill:#0000ff;stroke:#ffffff;stroke-width:1.5;stroke-linecap:round;stroke-linejoin:round" />
      <path
         transform="matrix(2.0863869,0,0,2.0863869,-43.009238,16.075324)"
         id="path3940"
         d="m 94.771,72.478 c 0.541,-1.017 0.846,-2 1.624,-3.053 1.049,-1.42 2.682,-3.242 4.439,-4.452 1.885,-1.297 4.281,-2.291 6.613,-2.943 2.398,-0.671 5.066,-0.645 7.598,-0.968"
         inkscape:connector-curvature="0"
         style="opacity:1;fill:#0000ff;stroke:#ffffff;stroke-width:1.5;stroke-linecap:round;stroke-linejoin:round" />
      <path
         transform="matrix(2.0863869,0,0,2.0863869,-43.009238,16.075324)"
         id="path4018"
         d="m 164.359,58.848 c -1.21,0.729 -2.084,1.512 -3.63,2.188 -1.652,0.72 -3.686,1.45 -6.104,1.977 -2.595,0.567 -5.877,0.983 -9.109,1.245 -3.364,0.272 -8.301,0.308 -10.727,0.321 -1.237,0.006 -1.876,-0.036 -2.815,-0.054"
         inkscape:connector-curvature="0"
         style="opacity:1;fill:#0000ff;stroke:#ffffff;stroke-width:2;stroke-linecap:round;stroke-linejoin:round;fill-opacity:0" />
      <path
         id="path4020"
         d="m 159.174,40.805 c -1.21,0.729 -2.084,1.512 -3.631,2.187 -1.651,0.721 -3.685,1.451 -6.104,1.978 -2.594,0.567 -5.877,0.982 -9.108,1.244 -3.364,0.273 -8.301,0.309 -10.727,0.322 -1.237,0.006 -1.876,-0.037 -2.815,-0.055"
         inkscape:connector-curvature="0"
         style="opacity:1;fill:#0000ff;stroke:#ffffff;stroke-width:2;stroke-linecap:round;stroke-linejoin:round;stroke-opacity:1;fill-opacity:0"
         transform="matrix(2.0863869,0,0,2.0863869,-43.009238,16.075324)" />
      <path
         transform="matrix(2.0863869,0,0,2.0863869,-43.009238,16.075324)"
         id="path4022"
         d="m 167.494,49.126 c -1.209,0.729 -2.084,1.511 -3.63,2.187 -1.651,0.721 -3.686,1.45 -6.104,1.978 -2.595,0.566 -5.877,0.982 -9.109,1.244 -3.363,0.273 -8.301,0.308 -10.727,0.321 -1.237,0.007 -1.876,-0.036 -2.814,-0.054"
         inkscape:connector-curvature="0"
         style="opacity:1;fill:#0000ff;stroke:#ffffff;stroke-width:2;stroke-linecap:round;stroke-linejoin:round;fill-opacity:0" />
    </g>
    <g
       inkscape:groupmode="layer"
       id="layer6"
       inkscape:label="bot">
      <path
         transform="matrix(2.0863869,0,0,2.0863869,-43.009238,16.075324)"
         id="path3908"
         d="m 141.555,97.102 c 1.256,1.681 2.123,3.136 3.031,4.987 1.07,2.182 1.855,4.888 2.8365,7.5015 1.2415,-1.1775 1.9965,-2.5365 3.6155,-3.8715 2.183,-1.8 5.499,-4.035 8.906,-5.337 3.655,-1.398 8.162,-2.215 12.479,-2.548 4.442,-0.342 9.217,0.408 13.807,0.6305 -0.344,-3.1735 -0.237,-6.3075 -0.993,-9.5595 -0.807,-3.475 -2.598,-7.085 -4.003,-10.838 -1.322,-0.413 -2.136,-0.646 -3.754,-0.816 -3.172,-0.332 -9.633,-0.978 -14.153,-0.63 -4.343,0.334 -8.824,1.15 -12.48,2.547 -3.406,1.303 -6.408,3.304 -8.905,5.337 -2.339,1.904 -3.852,4.254 -5.6945,6.595 1.8245,2.143 3.8815,4.096 5.3075,6.002 z"
         inkscape:connector-curvature="0"
         style="opacity:1;fill:#0000ff;stroke:#ffffff;stroke-width:2;stroke-linecap:round;stroke-linejoin:round"
         sodipodi:nodetypes="ccccccccccccccc" />
      <path
         transform="matrix(2.0863869,0,0,2.0863869,-43.009238,16.075324)"
         id="path3928"
         d="m 175.141,82.545 c 0.574,1.564 1.364,3.157 1.72,4.691 0.334,1.435 0.287,2.818 0.43,4.227"
         inkscape:connector-curvature="0"
         style="opacity:1;fill:#0000ff;stroke:#ffffff;stroke-width:2;stroke-linecap:round;stroke-linejoin:round" />
      <path
         transform="matrix(2.0863869,0,0,2.0863869,-43.009238,16.075324)"
         id="path3930"
         d="m 165.267,82.299 c 0.622,1.571 1.475,3.174 1.868,4.713 0.367,1.441 0.33,2.825 0.495,4.238"
         inkscape:connector-curvature="0"
         style="opacity:1;fill:#0000ff;stroke:#ffffff;stroke-width:2;stroke-linecap:round;stroke-linejoin:round" />
      <path
         transform="matrix(2.0863869,0,0,2.0863869,-43.009238,16.075324)"
         id="path3932"
         d="m 155.893,85.208 c 0.767,1.41 1.717,2.804 2.302,4.23 0.547,1.335 0.774,2.697 1.161,4.045"
         inkscape:connector-curvature="0"
         style="opacity:1;fill:#0000ff;stroke:#ffffff;stroke-width:2;stroke-linecap:round;stroke-linejoin:round" />
      <path
         transform="matrix(2.0863869,0,0,2.0863869,-43.009238,16.075324)"
         id="path3934"
         d="m 146.979,88.705 c 0.84,1.367 1.863,2.71 2.522,4.103 0.617,1.303 0.916,2.651 1.374,3.977"
         inkscape:connector-curvature="0"
         style="opacity:1;fill:#0000ff;stroke:#ffffff;stroke-width:2;stroke-linecap:round;stroke-linejoin:round" />
      <path
         transform="matrix(2.0863869,0,0,2.0863869,-43.009238,16.075324)"
         id="path4012"
         d="m 196.61,77.55 c 1.783,-0.033 3.305,-0.363 5.35,-0.098 2.183,0.282 4.728,0.82 7.444,1.865 2.914,1.121 6.327,2.899 9.552,4.826 3.357,2.005 7.953,5.384 10.206,7.05 1.149,0.85 1.701,1.344 2.552,2.016"
         inkscape:connector-curvature="0"
         style="opacity:1;fill:#0000ff;stroke:#ffffff;stroke-width:2;stroke-linecap:round;stroke-linejoin:round;fill-opacity:0" />
      <path
         transform="matrix(2.0863869,0,0,2.0863869,-43.009238,16.075324)"
         id="path4014"
         d="m 254.161,111.397 c -2.186,0.134 -4.101,0.632 -6.56,0.402 -2.625,-0.244 -5.652,-0.793 -8.805,-1.976 -3.384,-1.269 -7.271,-3.343 -10.905,-5.615 -3.783,-2.366 -8.858,-6.407 -11.345,-8.4 -1.269,-1.016 -1.864,-1.613 -2.796,-2.42"
         inkscape:connector-curvature="0"
         style="opacity:1;fill:#0000ff;stroke:#ffffff;stroke-width:2;stroke-linecap:round;stroke-linejoin:round;fill-opacity:0" />
      <path
         transform="matrix(2.0863869,0,0,2.0863869,-43.009238,16.075324)"
         id="path4016"
         d="m 279.42,120.469 c -1.868,0.796 -3.334,1.794 -5.605,2.387 -2.424,0.633 -5.338,1.151 -8.648,1.205 -3.551,0.058 -7.906,-0.365 -12.127,-1.025 -4.394,-0.688 -10.677,-2.299 -13.762,-3.099 -1.573,-0.408 -2.365,-0.694 -3.547,-1.042"
         inkscape:connector-curvature="0"
         style="opacity:1;fill:#0000ff;stroke:#ffffff;stroke-width:2;stroke-linecap:round;stroke-linejoin:round;fill-opacity:0" />
    </g>
    <g
       inkscape:groupmode="layer"
       id="layer5"
       inkscape:label="top">
      <path
         transform="matrix(2.0863869,0,0,2.0863869,-43.009238,16.075324)"
         id="path3916"
         d="m 187.753,37.213 c 0.452,2.167 0.623,3.921 0.643,6.045 0.023,2.502 -0.492,5.308 -0.7645,8.1395 1.8145,-0.3455 3.2275,-1.1195 5.4975,-1.3945 3.06,-0.372 7.468,-0.498 11.519,0.242 4.345,0.795 9.266,2.568 13.764,4.661 4.628,2.153 9.064,5.449 13.5675,8.179 1.1835,-2.971 2.8005,-5.658 3.6085,-8.925 0.863,-3.491 0.803,-7.643 1.2,-11.709 -1.129,-1.092 -1.835,-1.746 -3.378,-2.788 -3.027,-2.044 -9.207,-6.179 -13.916,-8.37 -4.524,-2.106 -9.419,-3.867 -13.765,-4.662 -4.05,-0.74 -8.03,-0.644 -11.518,-0.242 -3.267,0.376 -5.919,1.6 -8.898,2.633 0.8,2.886 1.926,5.733 2.44,8.191 z"
         inkscape:connector-curvature="0"
         style="opacity:1;fill:#0000ff;stroke:#ffffff;stroke-width:2;stroke-linecap:round;stroke-linejoin:round"
         sodipodi:nodetypes="ccccccccccccccc" />
      <path
         transform="matrix(2.0863869,0,0,2.0863869,-43.009238,16.075324)"
         id="path3922"
         d="m 226.119,42.589 c 0.023,1.914 0.315,4.025 0.068,5.742 -0.232,1.607 -0.937,2.869 -1.405,4.304"
         inkscape:connector-curvature="0"
         style="opacity:1;fill:#0000ff;stroke:#ffffff;stroke-width:2;stroke-linecap:round;stroke-linejoin:round" />
      <path
         transform="matrix(2.0863869,0,0,2.0863869,-43.009238,16.075324)"
         id="path3924"
         d="m 217.232,36.603 c 0.022,1.915 0.315,4.026 0.067,5.742 -0.231,1.608 -0.936,2.87 -1.405,4.304"
         inkscape:connector-curvature="0"
         style="opacity:1;fill:#0000ff;stroke:#ffffff;stroke-width:2;stroke-linecap:round;stroke-linejoin:round" />
      <path
         transform="matrix(2.0863869,0,0,2.0863869,-43.009238,16.075324)"
         id="path3926"
         d="m 203.918,33.183 c 0.023,1.914 0.315,4.025 0.068,5.742 -0.232,1.608 -0.937,2.869 -1.405,4.304"
         inkscape:connector-curvature="0"
         style="opacity:1;fill:#0000ff;stroke:#ffffff;stroke-width:2;stroke-linecap:round;stroke-linejoin:round" />
      <path
         transform="matrix(2.0863869,0,0,2.0863869,-43.009238,16.075324)"
         id="path4006"
         d="m 305.44,54.222 c -3.329,1.221 -6.26,2.899 -9.986,3.663 -3.979,0.815 -8.669,1.284 -13.296,0.884 -5.197,-0.45 -10.945,-2.037 -16.329,-3.981 -5.692,-2.056 -13.184,-6.19 -16.878,-8.239 -1.884,-1.044 -2.762,-1.727 -4.144,-2.59"
         inkscape:connector-curvature="0"
         style="opacity:1;fill:#0000ff;stroke:#ffffff;stroke-width:2.00000002;stroke-linecap:round;stroke-linejoin:round;stroke-opacity:1;fill-opacity:0;stroke-miterlimit:4;stroke-dasharray:none;stroke-dashoffset:0" />
      <path
         transform="matrix(2.0863869,0,0,2.0863869,-43.009238,16.075324)"
         id="path4008"
         d="m 272.602,81.475 c -1.398,-0.239 -2.516,-0.26 -4.194,-0.719 -1.792,-0.49 -3.997,-1.224 -6.334,-2.22 -2.626,-1.12 -5.734,-2.702 -8.732,-4.329 -3.17,-1.72 -7.61,-4.436 -9.801,-5.779 -1.118,-0.684 -1.676,-1.065 -2.513,-1.598"
         inkscape:connector-curvature="0"
         style="opacity:1;fill:#0000ff;stroke:#ffffff;stroke-width:2;stroke-linecap:round;stroke-linejoin:round;fill-opacity:0" />
      <path
         transform="matrix(2.0863869,0,0,2.0863869,-43.009238,16.075324)"
         id="path4010"
         d="m 293.482,72.239 c -2.483,0.431 -4.596,1.22 -7.447,1.292 -3.044,0.078 -6.692,-0.165 -10.394,-0.992 -4.158,-0.929 -8.888,-2.696 -13.373,-4.662 -4.741,-2.08 -11.153,-5.787 -14.316,-7.623 -1.613,-0.935 -2.389,-1.504 -3.583,-2.257"
         inkscape:connector-curvature="0"
         style="opacity:1;fill:#0000ff;stroke:#ffffff;stroke-width:2;stroke-linecap:round;stroke-linejoin:round;fill-opacity:0;" />
    </g>
  </g>
  <g
     inkscape:groupmode="layer"
     id="layer9"
     inkscape:label="Texte">
    <text
       transform="matrix(2.0863869,0,0,2.0863869,-43.009238,16.075324)"
       id="text3992"
       style="opacity:1;fill:#00ffff;font-size:20px;font-family:roboto;stroke:none;fill-opacity:1;-inkscape-font-specification:'roboto Italic';font-weight:normal;font-style:italic;font-stretch:normal;font-variant:normal;"
       y="160.439"
       x="177.881">
      <tspan
         style="font-size:19.77102138px;-inkscape-font-specification:'roboto Italic';font-family:roboto;font-weight:normal;font-style:italic;font-stretch:normal;font-variant:normal;"
         id="tspan5529">Les</tspan>
    </text>
    <text
       transform="matrix(2.0863869,0,0,2.0863869,-43.009238,16.075324)"
       id="text3994"
       style="font-style:italic;font-variant:normal;font-weight:normal;font-stretch:normal;font-size:26px;font-family:roboto;-inkscape-font-specification:'roboto Italic';opacity:1;fill:#ff0055;fill-opacity:1;stroke:none;"
       y="197.048"
       x="228.19099">
      <tspan
         style="font-size:26.0618px;-inkscape-font-specification:'roboto Italic';font-family:roboto;font-weight:normal;font-style:italic;font-stretch:normal;font-variant:normal;"
         id="tspan5531"
         dx="0">Sockets</tspan>
    </text>
    <text
       id="text3996"
       style="font-style:italic;font-variant:normal;font-weight:normal;font-stretch:normal;font-size:50.07328415px;font-family:roboto;-inkscape-font-specification:'roboto Italic';opacity:1;fill:#ffff42;fill-opacity:1;stroke:none;"
       y="519.40558"
       x="540.52551">
      <tspan
         style="font-style:italic;font-variant:normal;font-weight:normal;font-stretch:normal;font-size:50px;font-family:roboto;-inkscape-font-specification:'roboto Italic';"
         id="tspan5533">Diurnes</tspan>
    </text>
  </g>
</svg>
