<?xml version="1.0" encoding="UTF-8" standalone="no"?>
<!-- Created with Inkscape (http://www.inkscape.org/) -->

<svg
   xmlns:dc="http://purl.org/dc/elements/1.1/"
   xmlns:cc="http://creativecommons.org/ns#"
   xmlns:rdf="http://www.w3.org/1999/02/22-rdf-syntax-ns#"
   xmlns:svg="http://www.w3.org/2000/svg"
   xmlns="http://www.w3.org/2000/svg"
   xmlns:sodipodi="http://sodipodi.sourceforge.net/DTD/sodipodi-0.dtd"
   xmlns:inkscape="http://www.inkscape.org/namespaces/inkscape"
   width="1814.1732"
   height="1814.1732"
   viewBox="0 0 1814.1732 1814.1732"
   id="svg4223"
   version="1.1"
   inkscape:version="0.91 r13725"
   sodipodi:docname="drawing-2.svg"
   inkscape:export-filename="/home/frj/Pictures/platy2"
   inkscape:export-xdpi="90"
   inkscape:export-ydpi="90">
  <defs
     id="defs4225">
    <inkscape:path-effect
       effect="skeletal"
       id="path-effect5459"
       is_visible="true"
       pattern="M 0,5 C 0,2.24 2.24,0 5,0 7.76,0 10,2.24 10,5 10,7.76 7.76,10 5,10 2.24,10 0,7.76 0,5 Z"
       copytype="single_stretched"
       prop_scale="1"
       scale_y_rel="false"
       spacing="0"
       normal_offset="0"
       tang_offset="0"
       prop_units="false"
       vertical_pattern="false"
       fuse_tolerance="0" />
    <inkscape:path-effect
       effect="skeletal"
       id="path-effect5429"
       is_visible="true"
       pattern="M 0,5 C 0,2.24 2.24,0 5,0 7.76,0 10,2.24 10,5 10,7.76 7.76,10 5,10 2.24,10 0,7.76 0,5 Z"
       copytype="single_stretched"
       prop_scale="1"
       scale_y_rel="false"
       spacing="0"
       normal_offset="0"
       tang_offset="0"
       prop_units="false"
       vertical_pattern="false"
       fuse_tolerance="0" />
    <inkscape:path-effect
       effect="skeletal"
       id="path-effect5395"
       is_visible="true"
       pattern="M 0,5 C 0,2.24 2.24,0 5,0 7.76,0 10,2.24 10,5 10,7.76 7.76,10 5,10 2.24,10 0,7.76 0,5 Z"
       copytype="single_stretched"
       prop_scale="1"
       scale_y_rel="false"
       spacing="0"
       normal_offset="0"
       tang_offset="0"
       prop_units="false"
       vertical_pattern="false"
       fuse_tolerance="0" />
    <inkscape:path-effect
       effect="skeletal"
       id="path-effect5391"
       is_visible="true"
       pattern="M 0,5 C 0,2.24 2.24,0 5,0 7.76,0 10,2.24 10,5 10,7.76 7.76,10 5,10 2.24,10 0,7.76 0,5 Z"
       copytype="single_stretched"
       prop_scale="1"
       scale_y_rel="false"
       spacing="0"
       normal_offset="0"
       tang_offset="0"
       prop_units="false"
       vertical_pattern="false"
       fuse_tolerance="0" />
    <inkscape:path-effect
       effect="skeletal"
       id="path-effect5387"
       is_visible="true"
       pattern="M 0,5 C 0,2.24 2.24,0 5,0 7.76,0 10,2.24 10,5 10,7.76 7.76,10 5,10 2.24,10 0,7.76 0,5 Z"
       copytype="single_stretched"
       prop_scale="1"
       scale_y_rel="false"
       spacing="0"
       normal_offset="0"
       tang_offset="0"
       prop_units="false"
       vertical_pattern="false"
       fuse_tolerance="0" />
    <inkscape:path-effect
       effect="skeletal"
       id="path-effect5347"
       is_visible="true"
       pattern="M 0,5 C 0,2.24 2.24,0 5,0 7.76,0 10,2.24 10,5 10,7.76 7.76,10 5,10 2.24,10 0,7.76 0,5 Z"
       copytype="single_stretched"
       prop_scale="1"
       scale_y_rel="false"
       spacing="0"
       normal_offset="0"
       tang_offset="0"
       prop_units="false"
       vertical_pattern="false"
       fuse_tolerance="0" />
    <inkscape:path-effect
       effect="skeletal"
       id="path-effect5271"
       is_visible="true"
       pattern="m -145.46197,-284.05963 c 0,-2.76 2.24,-5 5,-5 2.76,0 5,2.24 5,5 0,2.76 -2.24,5 -5,5 -2.76,0 -5,-2.24 -5,-5 z"
       copytype="single_stretched"
       prop_scale="1"
       scale_y_rel="false"
       spacing="0"
       normal_offset="0"
       tang_offset="0"
       prop_units="false"
       vertical_pattern="false"
       fuse_tolerance="0" />
    <inkscape:path-effect
       effect="skeletal"
       id="path-effect5255"
       is_visible="true"
       pattern="m -145.46197,-284.05963 c 0,-2.76 2.24,-5 5,-5 2.76,0 5,2.24 5,5 0,2.76 -2.24,5 -5,5 -2.76,0 -5,-2.24 -5,-5 z"
       copytype="single_stretched"
       prop_scale="1"
       scale_y_rel="false"
       spacing="0"
       normal_offset="0"
       tang_offset="0"
       prop_units="false"
       vertical_pattern="false"
       fuse_tolerance="0" />
    <inkscape:path-effect
       effect="skeletal"
       id="path-effect5241"
       is_visible="true"
       pattern="m -145.46197,-284.05963 c 0,-2.76 2.24,-5 5,-5 2.76,0 5,2.24 5,5 0,2.76 -2.24,5 -5,5 -2.76,0 -5,-2.24 -5,-5 z"
       copytype="single_stretched"
       prop_scale="1"
       scale_y_rel="false"
       spacing="0"
       normal_offset="0"
       tang_offset="0"
       prop_units="false"
       vertical_pattern="false"
       fuse_tolerance="0" />
    <inkscape:path-effect
       effect="skeletal"
       id="path-effect5233"
       is_visible="true"
       pattern="m 0,-756.81102 c 0,-2.76 2.24,-5 5,-5 2.76,0 5,2.24 5,5 0,2.76 -2.24,5 -5,5 -2.76,0 -5,-2.24 -5,-5 z"
       copytype="single_stretched"
       prop_scale="1"
       scale_y_rel="false"
       spacing="0"
       normal_offset="0"
       tang_offset="0"
       prop_units="false"
       vertical_pattern="false"
       fuse_tolerance="0" />
    <inkscape:path-effect
       effect="skeletal"
       id="path-effect5229"
       is_visible="true"
       pattern="m -145.46197,-284.05963 c 0,-2.76 2.24,-5 5,-5 2.76,0 5,2.24 5,5 0,2.76 -2.24,5 -5,5 -2.76,0 -5,-2.24 -5,-5 z"
       copytype="single_stretched"
       prop_scale="1"
       scale_y_rel="false"
       spacing="0"
       normal_offset="0"
       tang_offset="0"
       prop_units="false"
       vertical_pattern="false"
       fuse_tolerance="0" />
    <inkscape:path-effect
       effect="skeletal"
       id="path-effect5225"
       is_visible="true"
       pattern="m -145.46197,-284.05963 c 0,-2.76 2.24,-5 5,-5 2.76,0 5,2.24 5,5 0,2.76 -2.24,5 -5,5 -2.76,0 -5,-2.24 -5,-5 z"
       copytype="single_stretched"
       prop_scale="1"
       scale_y_rel="false"
       spacing="0"
       normal_offset="0"
       tang_offset="0"
       prop_units="false"
       vertical_pattern="false"
       fuse_tolerance="0" />
    <inkscape:path-effect
       effect="skeletal"
       id="path-effect5163"
       is_visible="true"
       pattern="m -128.31911,-281.20249 c 0,-2.76 2.24,-5 5,-5 2.76,0 5,2.24 5,5 0,2.76 -2.24,5 -5,5 -2.76,0 -5,-2.24 -5,-5 z"
       copytype="single_stretched"
       prop_scale="1"
       scale_y_rel="false"
       spacing="0"
       normal_offset="0"
       tang_offset="0"
       prop_units="false"
       vertical_pattern="false"
       fuse_tolerance="0" />
    <inkscape:path-effect
       effect="skeletal"
       id="path-effect5159"
       is_visible="true"
       pattern="m 0,-756.81102 c 0,-2.76 2.24,-5 5,-5 2.76,0 5,2.24 5,5 0,2.76 -2.24,5 -5,5 -2.76,0 -5,-2.24 -5,-5 z"
       copytype="single_stretched"
       prop_scale="1"
       scale_y_rel="false"
       spacing="0"
       normal_offset="0"
       tang_offset="0"
       prop_units="false"
       vertical_pattern="false"
       fuse_tolerance="0" />
    <inkscape:path-effect
       effect="skeletal"
       id="path-effect5143"
       is_visible="true"
       pattern="m 0,-756.81102 c 0,-2.76 2.24,-5 5,-5 2.76,0 5,2.24 5,5 0,2.76 -2.24,5 -5,5 -2.76,0 -5,-2.24 -5,-5 z"
       copytype="single_stretched"
       prop_scale="1"
       scale_y_rel="false"
       spacing="0"
       normal_offset="0"
       tang_offset="0"
       prop_units="false"
       vertical_pattern="false"
       fuse_tolerance="0" />
    <inkscape:path-effect
       effect="skeletal"
       id="path-effect5119"
       is_visible="true"
       pattern="m -145.46197,-284.05963 c 0,-2.76 2.24,-5 5,-5 2.76,0 5,2.24 5,5 0,2.76 -2.24,5 -5,5 -2.76,0 -5,-2.24 -5,-5 z"
       copytype="single_stretched"
       prop_scale="1"
       scale_y_rel="false"
       spacing="0"
       normal_offset="0"
       tang_offset="0"
       prop_units="false"
       vertical_pattern="false"
       fuse_tolerance="0" />
    <inkscape:path-effect
       effect="skeletal"
       id="path-effect5115"
       is_visible="true"
       pattern="m -145.46197,-284.05963 c 0,-2.76 2.24,-5 5,-5 2.76,0 5,2.24 5,5 0,2.76 -2.24,5 -5,5 -2.76,0 -5,-2.24 -5,-5 z"
       copytype="single_stretched"
       prop_scale="1"
       scale_y_rel="false"
       spacing="0"
       normal_offset="0"
       tang_offset="0"
       prop_units="false"
       vertical_pattern="false"
       fuse_tolerance="0" />
    <inkscape:path-effect
       effect="skeletal"
       id="path-effect5111"
       is_visible="true"
       pattern="m -145.46197,-284.05963 c 0,-2.76 2.24,-5 5,-5 2.76,0 5,2.24 5,5 0,2.76 -2.24,5 -5,5 -2.76,0 -5,-2.24 -5,-5 z"
       copytype="single_stretched"
       prop_scale="1"
       scale_y_rel="false"
       spacing="0"
       normal_offset="0"
       tang_offset="0"
       prop_units="false"
       vertical_pattern="false"
       fuse_tolerance="0" />
    <inkscape:path-effect
       effect="skeletal"
       id="path-effect5103"
       is_visible="true"
       pattern="m -145.46197,-284.05963 c 0,-2.76 2.24,-5 5,-5 2.76,0 5,2.24 5,5 0,2.76 -2.24,5 -5,5 -2.76,0 -5,-2.24 -5,-5 z"
       copytype="single_stretched"
       prop_scale="1"
       scale_y_rel="false"
       spacing="0"
       normal_offset="0"
       tang_offset="0"
       prop_units="false"
       vertical_pattern="false"
       fuse_tolerance="0" />
    <inkscape:path-effect
       effect="skeletal"
       id="path-effect5057"
       is_visible="true"
       pattern="m -145.46197,-284.05963 c 0,-2.76 2.24,-5 5,-5 2.76,0 5,2.24 5,5 0,2.76 -2.24,5 -5,5 -2.76,0 -5,-2.24 -5,-5 z"
       copytype="single_stretched"
       prop_scale="1"
       scale_y_rel="false"
       spacing="0"
       normal_offset="0"
       tang_offset="0"
       prop_units="false"
       vertical_pattern="false"
       fuse_tolerance="0" />
    <inkscape:path-effect
       effect="skeletal"
       id="path-effect4981"
       is_visible="true"
       pattern="m -145.46197,-284.05963 c 0,-2.76 2.24,-5 5,-5 2.76,0 5,2.24 5,5 0,2.76 -2.24,5 -5,5 -2.76,0 -5,-2.24 -5,-5 z"
       copytype="single_stretched"
       prop_scale="1"
       scale_y_rel="false"
       spacing="0"
       normal_offset="0"
       tang_offset="0"
       prop_units="false"
       vertical_pattern="false"
       fuse_tolerance="0" />
    <inkscape:path-effect
       effect="skeletal"
       id="path-effect4973"
       is_visible="true"
       pattern="m -145.46197,-284.05963 c 0,-2.76 2.24,-5 5,-5 2.76,0 5,2.24 5,5 0,2.76 -2.24,5 -5,5 -2.76,0 -5,-2.24 -5,-5 z"
       copytype="single_stretched"
       prop_scale="1"
       scale_y_rel="false"
       spacing="0"
       normal_offset="0"
       tang_offset="0"
       prop_units="false"
       vertical_pattern="false"
       fuse_tolerance="0" />
    <inkscape:path-effect
       effect="skeletal"
       id="path-effect5163-2"
       is_visible="true"
       pattern="m 60.997804,-278.70626 c 0,-2.76 2.24,-5 5,-5 2.76,0 5,2.24 5,5 0,2.76 -2.24,5 -5,5 -2.76,0 -5,-2.24 -5,-5 z"
       copytype="single_stretched"
       prop_scale="1"
       scale_y_rel="false"
       spacing="0"
       normal_offset="0"
       tang_offset="0"
       prop_units="false"
       vertical_pattern="false"
       fuse_tolerance="0" />
  </defs>
  <sodipodi:namedview
     id="base"
     pagecolor="#ffffff"
     bordercolor="#666666"
     borderopacity="1.0"
     inkscape:pageopacity="0.0"
     inkscape:pageshadow="2"
     inkscape:zoom="0.35"
     inkscape:cx="253.61924"
     inkscape:cy="1049.713"
     inkscape:document-units="px"
     inkscape:current-layer="layer1"
     showgrid="false"
     units="px"
     inkscape:window-width="1920"
     inkscape:window-height="1024"
     inkscape:window-x="0"
     inkscape:window-y="27"
     inkscape:window-maximized="1"
     showguides="false" />
  <metadata
     id="metadata4228">
    <rdf:RDF>
      <cc:Work
         rdf:about="">
        <dc:format>image/svg+xml</dc:format>
        <dc:type
           rdf:resource="http://purl.org/dc/dcmitype/StillImage" />
        <dc:title></dc:title>
      </cc:Work>
    </rdf:RDF>
  </metadata>
  <g
     inkscape:label="Layer 1"
     inkscape:groupmode="layer"
     id="layer1"
     transform="translate(0,761.81102)">
    <path
       style="fill:#552200;fill-rule:evenodd;stroke:none;stroke-width:1px;stroke-linecap:butt;stroke-linejoin:miter;stroke-opacity:1"
       d="m 1077.7114,-99.379311 c -0.3155,0.220002 -3.3609,-4.006899 -9.8292,-11.528209 -6.6748,-7.76134 -16.2048,-18.04685 -30.6417,-30.81328 0,1e-5 -1e-4,-1e-5 -1e-4,-1e-5 -14.3277,-12.66522 -32.2979,-26.64573 -55.27621,-41.25611 -36.02024,-22.89798 -83.76572,-47.07667 -141.92705,-62.8231 -24.52118,-6.63699 -51.12365,-11.75665 -79.03468,-13.92848 -25.41096,-1.97578 -52.2429,-1.52862 -79.29093,2.72429 -25.39852,3.9924 -51.19871,11.41167 -75.79573,23.03776 -24.55007,11.57667 -47.86919,27.38739 -68.65174,46.96346 -28.55144,30.63526 -57.49645,63.53024 -84.47651,98.64537 -19.33743,25.16831 -38.09789,51.840698 -53.85304,80.3718851 -6.0102,10.882299 -11.58927,22.0690109 -16.37202,33.5959399 -2.47498,5.968618 -4.7446,12.026677 -6.7062,18.169159 -1.1811,3.698474 -2.24714,7.416913 -3.17869,11.156841 -2.07521,8.346015 -3.49952,16.755365 -3.86835,25.134225 0,0 0,6.9e-5 0,6.9e-5 -0.31247,7.159362 0.11634,14.272341 1.5972,21.079831 1.32515,6.11272 3.48453,12.00509 6.50273,17.35331 2.93399,5.22147 6.71176,9.97988 11.06081,14.11967 4.59814,4.3841 9.88263,8.09829 15.50439,11.23032 6.23835,3.47339 12.92205,6.21083 19.78186,8.42438 16.4219,5.30767 33.79897,7.57148 50.99483,8.49934 21.32226,1.13271 42.63858,0.0396 63.41924,-2.10511 24.74709,-2.55881 49.03014,-6.72246 72.48683,-11.699 27.00692,-5.73116 53.20743,-12.63516 78.30891,-20.13894 59.50842,-17.79017 113.63285,-39.069105 161.38109,-60.833641 27.81457,-12.679143 53.31558,-25.49403 76.78611,-38.296374 26.37134,-14.385129 49.44819,-28.34399517 70.02743,-41.942969 24.60802,-16.262347 44.07292,-30.949421 60.21272,-44.363856 32.7426,-27.217861 47.3083,-45.71108 48.028,-45.10877 0.2853,0.23879 -13.3032,19.631321 -45.5794,47.974326 -15.851,13.921506 -35.2042,29.188487 -59.65559,45.96188 -20.46418,14.039143 -43.50415,28.447187 -69.83926,43.247325 -23.4444,13.176014 -48.96423,26.357545 -76.81638,39.380395 -47.81102,22.35637 -102.12452,44.190354 -161.98083,62.466994 -25.25249,7.71099 -51.65394,14.81225 -78.92536,20.72877 -23.68164,5.13895 -48.2743,9.4515 -73.43286,12.14284 -21.11436,2.26268 -42.92469,3.43379 -64.92321,2.33281 -17.72256,-0.87258 -35.92833,-3.24593 -53.50787,-8.84476 -7.36303,-2.34866 -14.64264,-5.32974 -21.5725,-9.15908 -6.25751,-3.45589 -12.22077,-7.65527 -17.54157,-12.69042 -5.04011,-4.77637 -9.42968,-10.30573 -12.89389,-16.43562 -3.54123,-6.28917 -6.06036,-13.10864 -7.57792,-20.13379 -1.67988,-7.800185 -2.18613,-15.766563 -1.82656,-23.636175 1e-5,10e-7 1e-5,-7.7e-5 1e-5,-7.7e-5 0.41699,-9.194341 1.93405,-18.263147 4.14761,-27.10826 0.99032,-3.963736 2.11518,-7.888769 3.35516,-11.776442 2.05942,-6.456827 4.42645,-12.779427 6.99845,-18.963629 4.96627,-11.9481252 10.71179,-23.4655392 16.87184,-34.590983 16.138,-29.141889 35.20512,-56.19911 54.78205,-81.553508 27.39726,-35.483216 56.70251,-68.594396 85.57396,-99.330576 21.65649,-20.25715 45.93387,-36.57639 71.48869,-48.51333 25.53418,-11.89989 52.18585,-19.40343 78.3526,-23.33532 27.85362,-4.1841 55.33286,-4.44667 81.26281,-2.20838 28.47633,2.45644 55.4957,7.91386 80.32165,14.91588 58.85218,16.59481 106.83787,41.7468 142.78409,65.54363 22.92258,15.17177 40.79848,29.7509 54.87318,42.93956 0,0 10e-5,2e-5 10e-5,2e-5 14.1444,13.24928 23.4684,24.14366 29.6698,32.29437 6.0582,7.96247 8.6001,12.544822 8.4012,12.683549 z"
       id="path4971"
       inkscape:path-effect="#path-effect4973"
       inkscape:original-d="M 1077.7114,-99.379311 C 997.43926,-214.48183 708.04705,-353.79527 533.91067,-190.35114 c -540.9217403,578.117 361.95245,336.42405 570.99073,86.63983"
       inkscape:connector-curvature="0" />
    <path
       style="fill:#552200;fill-rule:evenodd;stroke:none;stroke-width:1px;stroke-linecap:butt;stroke-linejoin:miter;stroke-opacity:1"
       d="m 552.03737,-216.34308 c 0.0287,-1.17821 22.64532,-2.58183 59.20553,0.0306 37.3093,2.66597 86.04793,9.39454 140.78879,24.49787 5.11127,1.41023 10.15879,2.86138 15.1412,4.34997 35.95818,10.73913 66.69152,22.9873 93.0388,35.94926 24.09856,11.84903 41.8072,22.95359 54.49824,32.1725 12.31137,8.94311 18.45094,15.02616 17.98794,15.63159 -0.56866,0.74358 -7.67142,-4.05295 -20.57285,-11.70385 -13.5577,-8.04008 -31.02619,-17.69008 -55.41284,-28.66923 -26.50194,-11.92407 -56.71096,-23.31143 -92.37518,-33.82194 -4.9275,-1.45162 -9.91578,-2.87527 -14.96498,-4.26831 -54.29316,-14.97912 -101.7423,-22.59257 -138.80732,-27.09976 -36.04141,-4.38272 -58.56566,-5.49363 -58.52733,-7.0687 z"
       id="path4979"
       inkscape:path-effect="#path-effect4981"
       inkscape:original-d="m 552.03737,-216.34308 c 146.02125,3.55304 297.00546,48.65664 380.6605,112.63179"
       inkscape:connector-curvature="0" />
    <path
       style="fill:#552200;fill-rule:evenodd;stroke:none;stroke-width:1px;stroke-linecap:butt;stroke-linejoin:miter;stroke-opacity:1"
       d="m 497.65729,-142.69924 c 0.08,-0.0452 -12.04567,-13.89894 -21.0702,-44.74126 -3.73032,-12.75617 -6.70958,-28.41679 -7.09451,-46.29574 -0.30579,-14.30626 1.04212,-29.85889 4.61934,-46.28962 3.21942,-14.78539 8.14894,-29.97576 14.91819,-45.41958 0,0 1e-5,-2e-5 1e-5,-2e-5 12.79287,-29.16638 31.24048,-57.65832 55.167,-85.44416 21.37476,-24.83809 46.20494,-48.13 74.2614,-69.79597 1.90265,-1.46929 3.8102,-2.92341 5.72199,-4.36249 30.92285,-23.28395 62.77602,-42.50598 94.33073,-58.11224 34.23917,-16.94022 67.04084,-29.11666 98.31433,-37.2632 35.23303,-9.19343 65.31793,-12.45168 91.86916,-11.49002 15.83395,0.57535 29.06967,2.70051 40.12132,5.56732 23.35147,6.05458 33.8684,14.52676 33.7302,14.77976 -0.5579,1.02134 -11.75926,-6.01806 -34.68281,-10.6559 -10.92733,-2.20961 -23.81049,-3.70439 -39.28509,-3.741 -26.00127,-0.0651 -55.09293,3.8623 -89.60929,13.48553 -30.57888,8.53937 -62.6003,20.90433 -96.19405,37.85221 -30.93668,15.61325 -62.18214,34.65355 -92.57845,57.56342 -1.87904,1.41668 -3.75398,2.84737 -5.62418,4.29218 -27.58009,21.30681 -51.99719,44.03732 -73.07331,68.20558 -23.58097,27.05799 -41.8358,54.50866 -54.65644,82.61299 0,0 -10e-6,3e-5 -10e-6,3e-5 -6.78546,14.86399 -11.82109,29.44048 -15.22538,43.64065 -3.78227,15.77455 -5.46565,30.71926 -5.57398,44.52851 -0.13817,17.24972 2.18337,32.51242 5.24108,45.0828 7.3881,30.39363 17.95294,45.10765 16.37295,46.00022 z"
       id="path5055"
       inkscape:path-effect="#path-effect5057"
       inkscape:original-d="M 497.65729,-142.69924 C 362.04004,-382.76272 817.06154,-661.96242 982.54625,-571.56646"
       inkscape:connector-curvature="0" />
    <path
       style="fill:#552200;fill-rule:evenodd;stroke:none;stroke-width:1px;stroke-linecap:butt;stroke-linejoin:miter;stroke-opacity:1"
       d="m 957.27516,-585.28005 c 0.0255,-0.0877 38.51691,5.43449 93.60074,36.80038 24.8171,14.13215 52.1112,33.20735 79.394,58.63479 0,0 0,2e-5 0,2e-5 37.6638,35.10435 73.4376,80.48152 101.1548,136.03526 3.5122,7.03946 6.8275,14.10903 9.9495,21.1959 13.1024,29.7334 22.6374,59.45158 28.9447,88.49671 6.7967,31.2879 9.6482,60.93058 9.3672,88.46971 -0.3267,32.29883 -4.9914,60.132768 -11.6578,83.363714 -14.2006,49.487681 -35.1641,72.07942425 -35.1768,72.07109307 -1.8644,-1.21893847 16.9585,-25.01868707 29.1605,-73.68916107 5.7547,-22.953733 9.597,-50.170786 9.3541,-81.756586 -0.2093,-26.92364 -3.394,-55.83237 -10.3165,-86.40298 -6.4272,-28.3734 -15.9205,-57.40743 -28.8052,-86.52075 -3.0721,-6.93931 -6.3274,-13.86398 -9.7695,-20.76197 -27.1613,-54.43103 -61.8486,-99.10039 -98.3059,-134.04545 0,0 0,-1e-5 0,-1e-5 -26.408,-25.31409 -52.7671,-44.57032 -76.7764,-59.17103 -53.16247,-32.33128 -90.81477,-40.32163 -90.11744,-42.71964 z"
       id="path5101"
       inkscape:path-effect="#path-effect5103"
       inkscape:original-d="M 957.27516,-585.28005 C 1219.429,-509.0473 1348.6869,-177.38272 1232.8515,-0.21247293"
       inkscape:connector-curvature="0" />
    <path
       style="fill:#552200;fill-rule:evenodd;stroke:none;stroke-width:1px;stroke-linecap:butt;stroke-linejoin:miter;stroke-opacity:1"
       d="m 1248.8734,-46.160192 c 0.1762,0.05788 -0.7639,19.119354 -20.0997,42.9585732 0,-1e-6 0,6.8e-6 0,6.8e-6 -8.4592,10.4076618 -19.917,20.700797 -34.7584,29.521901 -12.5767,7.477199 -26.7649,13.539921 -42.5032,18.210451 -5.668,1.684098 -11.4697,3.174927 -17.4046,4.480545 -9.5195,2.094191 -18.9421,3.615056 -28.0956,4.710471 -31.9312,3.822575 -61.0875,2.698637 -82.7337,0.565183 -11.814,-1.162226 -21.4913,-2.651539 -28.81151,-4.09106 -3.88814,-0.764577 -7.01762,-1.497999 -9.43098,-2.17128 0,0 0,-1e-6 0,-1e-6 -3.57906,-0.999098 -5.4238,-1.82286 -5.32992,-2.289365 0.0892,-0.443202 2.0888,-0.509613 5.74853,-0.361406 0,0 0,0 0,0 2.37713,0.09522 5.74985,0.293988 9.56297,0.522644 7.49161,0.449156 16.89281,1.026424 28.71741,1.405008 21.3912,0.68119 50.1178,0.75344 81.0487,-3.337494 8.8837,-1.175397 18.0015,-2.702016 27.177,-4.718281 5.7225,-1.257506 11.3049,-2.669664 16.754,-4.248127 15.1326,-4.389222 28.6719,-9.862282 40.7399,-16.590151 14.2166,-7.927701 25.3377,-17.0145983 33.8855,-26.3012195 0,0 0,-6.9e-6 0,-6.9e-6 19.4414,-21.0739926 23.1982,-39.0333266 25.5336,-38.2663916 z"
       id="path5109"
       inkscape:path-effect="#path-effect5111"
       inkscape:original-d="M 1248.8734,-46.160192 C 1207.1075,81.020725 997.75975,49.368583 979.70579,45.735233"
       inkscape:connector-curvature="0" />
    <path
       style="fill:#552200;fill-rule:evenodd;stroke:none;stroke-width:1px;stroke-linecap:butt;stroke-linejoin:miter;stroke-opacity:1"
       d="m 563.13685,278.537 c 0.77156,-0.47135 19.65541,22.60348 39.13234,62.88436 6.14727,12.66758 13.01892,28.2678 16.44623,45.18995 1.0481,5.14751 1.75308,10.67943 1.56222,16.42022 -0.11343,4.16075 -0.84875,8.60758 -2.69778,12.93035 -0.98916,2.27986 -2.3519,4.4361 -4.06996,6.34805 -0.9283,1.03307 -1.95553,1.98944 -3.07607,2.85254 -3.25982,2.41894 -6.91109,3.87452 -10.51832,4.55744 -4.28318,0.82337 -8.48587,0.82616 -12.40412,0.40611 -4.86328,-0.50243 -9.51041,-1.55948 -13.8726,-2.8576 -11.57681,-3.44102 -22.13971,-8.57616 -31.31301,-13.68663 -13.16262,-7.31468 -24.63396,-15.31606 -33.8094,-22.34389 0,0 -1e-5,0 -1e-5,0 -21.62028,-16.55451 -32.62588,-29.17884 -31.89769,-29.995 1.06728,-1.19622 13.70572,9.54358 35.94881,24.32383 0,0 10e-6,10e-6 10e-6,10e-6 9.42288,6.25948 21.0577,13.56194 33.95103,20.16522 9.0449,4.62052 19.17537,9.26454 29.80197,12.20398 3.9963,1.10374 8.07587,1.99107 12.14303,2.35306 3.28364,0.27704 6.52361,0.29079 9.49036,-0.34115 2.42399,-0.52775 4.71597,-1.38839 6.43512,-2.74881 0.59991,-0.44285 1.16059,-0.96392 1.67742,-1.5466 0.95635,-1.07818 1.75384,-2.35739 2.369,-3.71916 1.24539,-2.70131 1.72803,-5.94545 1.91376,-9.29717 0.22294,-4.64966 -0.36613,-9.44571 -1.22705,-14.16958 -2.85529,-15.56088 -9.11969,-30.7993 -14.6145,-43.48085 C 577.0066,304.74247 560.83153,279.94535 563.13685,278.537 Z"
       id="path5113"
       inkscape:path-effect="#path-effect5115"
       inkscape:original-d="m 563.13685,278.537 c 123.21437,201.68943 1.08596,160.86695 -86.51817,82.7059"
       inkscape:connector-curvature="0" />
    <path
       style="fill:#552200;fill-rule:evenodd;stroke:none;stroke-width:1px;stroke-linecap:butt;stroke-linejoin:miter;stroke-opacity:1"
       d="m 915.61826,290.78974 c 0.60358,0.64537 -4.60805,6.32143 -13.71767,16.40904 -8.4242,9.32863 -22.80599,25.29037 -35.62166,43.65937 0,0 -10e-6,10e-6 -10e-6,10e-6 -4.93604,7.07491 -9.98582,14.98588 -14.27643,23.49663 -3.08193,6.12688 -5.89372,12.70568 -7.68985,19.56216 -1.31719,5.0764 -2.16501,10.34879 -1.87402,15.48263 0.22951,4.0219 1.09681,8.03114 2.87921,11.49232 1.58032,3.15168 3.96796,6.00043 6.86071,8.27631 3.08831,2.4525 6.84925,4.26542 10.91187,5.60925 2.38071,0.78168 4.85823,1.37334 7.40892,1.81148 2.44769,0.42045 4.93941,0.69552 7.44091,0.86419 6.07095,0.40066 12.19216,0.10263 18.20061,-0.59203 15.49163,-1.78837 30.33635,-6.30289 43.70503,-11.52831 18.97592,-7.43285 35.60811,-16.7702 49.23694,-25.55916 0,0 10e-6,-1e-5 10e-6,-1e-5 33.15967,-21.39025 49.95767,-40.03484 51.50607,-38.53072 0.5361,0.52073 -14.3217,21.16613 -47.32834,44.6861 0,0 0,1e-5 0,1e-5 -13.54421,9.65419 -30.35208,19.82244 -49.94368,27.98675 -13.76981,5.74967 -29.33602,10.69715 -45.99271,12.77785 -6.47009,0.80711 -13.19418,1.15373 -20.02062,0.73087 -2.81165,-0.17058 -5.65926,-0.48419 -8.51018,-0.98101 -2.97049,-0.51765 -5.91399,-1.22886 -8.80458,-2.16868 -4.96625,-1.6048 -9.75057,-3.99343 -13.96748,-7.31047 -3.99161,-3.16126 -7.25563,-7.15554 -9.50476,-11.68387 -2.42759,-4.98208 -3.56873,-10.30676 -3.74374,-15.45444 -0.22131,-6.47959 0.83587,-12.70323 2.47418,-18.39682 2.19606,-7.69127 5.3981,-14.78822 8.85811,-21.19605 4.80844,-8.92333 10.32513,-16.99398 15.69996,-24.08649 0,0 10e-6,-1e-5 10e-6,-1e-5 29.26375,-38.61318 55.79989,-55.37112 55.81319,-55.3569 z"
       id="path5117"
       inkscape:path-effect="#path-effect5119"
       inkscape:original-d="m 915.61826,290.78974 c -183.65731,171.7648 -2.20933,201.38118 124.97064,70.45316"
       inkscape:connector-curvature="0" />
    <path
       style="fill:#552200;fill-rule:evenodd;stroke:none;stroke-width:1px;stroke-linecap:butt;stroke-linejoin:miter;stroke-opacity:1"
       d="m 521.47998,799.27786 c -0.45732,0.54927 -14.74018,-9.16218 -36.33506,-30.04634 -11.59064,-11.20508 -26.51914,-26.85469 -40.23409,-45.78766 -5.6856,-7.84849 -11.38642,-16.59803 -16.42316,-26.15117 -4.35129,-8.24334 -8.32315,-17.34684 -11.05705,-27.15674 -2.38246,-8.52128 -3.80097,-17.80334 -3.31754,-27.35997 0.46639,-8.93464 2.74847,-18.027 7.06629,-26.40673 3.79325,-7.22395 9.10889,-13.20684 14.71853,-18.60584 7.24948,-7.05612 15.22965,-13.35437 23.67314,-19.25425 16.18849,-11.327 33.96724,-21.24017 53.07682,-29.41396 3.6038,-1.54147 7.22202,-3.00695 10.85042,-4.39761 11.52585,-4.42335 23.17389,-8.0362 34.9757,-10.56371 11.12396,-2.39209 22.32827,-3.77884 33.52516,-3.52833 10.14225,0.20292 20.24188,1.91604 29.53747,5.9326 9.06949,3.95181 16.81658,10.28648 22.24853,18.1378 0,0 1e-5,2e-5 1e-5,2e-5 5.58425,8.1137 10.10217,16.6404 13.43686,25.40416 3.15891,8.31873 5.20686,16.76054 6.33809,25.01528 2.32944,17.21121 0.84358,34.20345 -1.10144,48.3951 -3.30988,24.37744 -4.77643,27.20444 -6.88219,46.75618 -1.63459,15.28348 -1.33513,26.19497 -0.59879,34.58733 0.70034,7.98202 1.62459,12.22875 1.0861,12.36958 -0.37411,0.0978 -2.19246,-3.9268 -3.7811,-11.98514 -1.64093,-8.32362 -2.77217,-19.81643 -1.85825,-35.3967 1.00266,-17.32407 2.81199,-25.58259 5.07045,-47.16903 1.44368,-13.97361 2.48754,-30.42157 -0.0727,-46.3567 -1.21703,-7.66215 -3.26377,-15.45183 -6.30753,-23.05812 -3.20362,-8.02297 -7.51779,-15.85029 -12.81593,-23.3409 0,0 -10e-6,-2e-5 -10e-6,-2e-5 -4.46102,-6.33428 -10.97223,-11.48216 -18.50079,-14.68335 -7.84858,-3.37179 -16.74201,-4.72195 -25.99238,-4.90611 -10.23378,-0.17724 -20.66102,1.20367 -31.24127,3.50089 -11.2074,2.44377 -22.3512,5.94157 -33.48327,10.21895 -3.51078,1.35083 -7.01187,2.77171 -10.49916,4.26375 -18.49063,7.91122 -35.70309,17.44069 -51.39333,28.29231 -8.1738,5.66107 -15.78822,11.56582 -22.59963,18.10172 -5.29681,5.14377 -10.04862,10.23917 -13.07088,16.04558 -3.75201,7.0488 -5.80889,14.86368 -6.32754,22.58219 -0.5737,8.31556 0.6005,16.68894 2.62641,24.569 2.34495,9.08589 5.92974,17.72689 9.90246,25.69839 4.60553,9.22962 9.91158,17.8214 15.22969,25.61629 12.79667,18.7554 27.01531,34.82215 37.86269,46.42864 20.28975,21.70142 33.40843,32.7637 32.66832,33.65262 z"
       id="path5161"
       inkscape:path-effect="#path-effect5163"
       inkscape:original-d="m 521.47998,799.27786 c -35.28716,-29.37998 -128.80261,-118.2644 -96.13132,-180.72787 22.2663,-42.57018 172.6785,-121.50867 214.69324,-61.26352 45.68649,65.51016 -0.53414,126.61119 16.02188,189.91713"
       inkscape:connector-curvature="0" />
    <path
       style="fill:#552200;fill-rule:evenodd;stroke:none;stroke-width:1px;stroke-linecap:butt;stroke-linejoin:miter;stroke-opacity:1"
       d="m 981.2379,804.63037 c -0.74011,-0.88892 12.37858,-11.95119 32.6683,-33.65262 10.8474,-11.60649 25.0661,-27.67324 37.8628,-46.42864 5.3181,-7.79489 10.6241,-16.38667 15.2296,-25.61629 3.9728,-7.9715 7.5576,-16.61249 9.9025,-25.69839 2.0259,-7.88006 3.2001,-16.25343 2.6264,-24.569 -0.5187,-7.71851 -2.5756,-15.53339 -6.3276,-22.58219 -3.0222,-5.80641 -7.774,-10.90182 -13.0708,-16.04558 -6.8114,-6.5359 -14.4259,-12.44066 -22.5997,-18.10172 -15.6902,-10.85163 -32.9026,-20.3811 -51.39324,-28.29231 -3.4873,-1.49204 -6.98839,-2.91293 -10.49917,-4.26376 -11.13207,-4.27738 -22.27587,-7.77517 -33.48327,-10.21894 -10.58025,-2.29723 -21.00749,-3.67813 -31.24126,-3.5009 -9.25037,0.18416 -18.14379,1.53432 -25.99237,4.90612 -7.52856,3.20119 -14.03976,8.34907 -18.50078,14.68335 0,0 -10e-6,2e-5 -10e-6,2e-5 -5.29814,7.49061 -9.61231,15.31793 -12.81594,23.3409 -3.04375,7.60629 -5.0905,15.39597 -6.30753,23.05812 -2.56029,15.93513 -1.51643,32.38308 -0.0728,46.3567 2.25846,21.58644 4.06779,29.84496 5.07045,47.16902 0.91392,15.58028 -0.21732,27.07308 -1.85825,35.3967 -1.58864,8.05834 -3.40699,12.08298 -3.7811,11.98514 -0.53849,-0.14083 0.38576,-4.38756 1.0861,-12.36958 0.73634,-8.39236 1.0358,-19.30385 -0.59879,-34.58732 -2.10576,-19.55175 -3.57231,-22.37874 -6.88218,-46.75619 -1.94503,-14.19164 -3.43089,-31.18388 -1.10144,-48.39509 1.13123,-8.25474 3.17918,-16.69655 6.33809,-25.01528 3.33469,-8.76376 7.85261,-17.29046 13.43686,-25.40416 0,0 10e-6,-2e-5 10e-6,-2e-5 5.43195,-7.85132 13.17903,-14.18599 22.24852,-18.1378 9.29559,-4.01656 19.39521,-5.72969 29.53746,-5.9326 11.19689,-0.25052 22.40119,1.13623 33.52515,3.52833 11.80181,2.5275 23.44985,6.14035 34.9757,10.56371 3.6284,1.39065 7.24662,2.85614 10.85043,4.3976 19.10961,8.1738 36.88831,18.08697 53.07681,29.41396 8.4435,5.89989 16.4236,12.19814 23.6731,19.25426 5.6096,5.399 10.9253,11.38189 14.7185,18.60585 4.3178,8.37971 6.5999,17.47208 7.0663,26.40672 0.4835,9.55663 -0.935,18.83868 -3.3175,27.35997 -2.7339,9.80989 -6.7058,18.91339 -11.057,27.15674 -5.0368,9.55314 -10.7376,18.30268 -16.4232,26.15117 -13.715,18.93297 -28.6435,34.58259 -40.2341,45.78766 -21.5949,20.88416 -35.87778,30.59561 -36.3351,30.04634 z"
       id="path5161-3"
       inkscape:path-effect="#path-effect5163-2"
       inkscape:original-d="m 981.2379,804.63037 c 35.2872,-29.37998 128.8027,-118.2644 96.1313,-180.72787 -22.2662,-42.57019 -172.67843,-121.50868 -214.69313,-61.26352 -45.6865,65.51016 0.53413,126.61119 -16.02189,189.91712"
       inkscape:connector-curvature="0" />
    <path
       style="fill:#552200;fill-rule:evenodd;stroke:none;stroke-width:1px;stroke-linecap:butt;stroke-linejoin:miter;stroke-opacity:1"
       d="m 521.47995,799.27778 c -0.10811,-0.41607 20.87684,-8.15771 60.80537,-11.22411 19.04668,-1.46452 40.49707,-1.8069 66.75014,-0.6938 45.78099,1.94046 82.2092,6.58277 141.93264,12.8607 41.48127,4.35002 91.14676,9.31991 139.5275,7.75983 0,-10e-6 5e-5,0 5e-5,0 20.87326,-0.67215 42.41415,-2.57956 63.74449,-6.85131 19.33746,-3.87583 38.76196,-9.74664 57.04946,-18.53295 12.0253,-5.76546 23.3868,-13.25476 33.7959,-22.11758 10.5589,-8.98769 20.1096,-19.36552 28.7,-30.69928 8.1906,-10.80832 15.4646,-22.4464 21.9821,-34.66858 0.6313,-1.18383 1.2544,-2.37124 1.8697,-3.56189 7.4838,-14.4867 13.789,-29.48033 19.2002,-44.61399 12.2325,-34.20193 20.0383,-69.38002 25.3257,-103.54501 6.0741,-39.28701 8.8178,-77.89877 9.5797,-114.48602 0,0 0,-4e-5 0,-4e-5 0.8522,-41.01988 -0.8077,-79.8042 -3.9927,-115.68295 -3.5392,-39.85025 -8.8554,-75.30351 -15.3283,-107.18958 -7.4183,-36.51974 -15.4875,-64.7725 -24.3825,-89.07081 -5.2062,-14.2211 -10.1026,-25.363537 -14.8299,-34.798069 -9.1607,-18.272946 -16.2108,-26.839023 -15.7156,-27.237543 0.3146,-0.253115 8.2503,7.682321 18.413,25.805626 5.2078,9.282806 10.6239,20.462746 16.2977,34.633776 9.6838,24.18549 18.5443,52.72996 26.6261,89.308 7.0749,32.00313 12.9397,67.70223 16.9452,107.79112 3.6096,36.112 5.6317,75.20192 5.0585,116.59767 0,0 0,4e-5 0,4e-5 -0.5095,36.92347 -3.0782,75.96094 -9.0787,115.79273 -5.2118,34.63147 -13.0762,70.42844 -25.5296,105.43014 -5.5137,15.49286 -11.9857,30.89876 -19.7036,45.8528 -0.6342,1.22923 -1.2772,2.45564 -1.9291,3.67885 -6.73,12.62879 -14.2966,24.7097 -22.8548,35.99332 -8.9778,11.83893 -19.0418,22.72682 -30.2286,32.22647 -11.0404,9.37265 -23.1362,17.2942 -35.9866,23.41856 -19.2258,9.14386 -39.4362,15.19014 -59.42363,19.08551 -22.03169,4.29725 -44.09248,6.14293 -65.33785,6.68411 0,0 -5e-5,0 -5e-5,0 -49.27675,1.25292 -99.14328,-4.15929 -140.67976,-8.99824 -60.7884,-7.06627 -94.86798,-12.04852 -141.3566,-14.96888 -26.11148,-1.63999 -47.21846,-1.84326 -66.18454,-0.9978 -39.5151,1.76522 -60.79918,8.0269 -61.06102,7.01918 z"
       id="path5223"
       inkscape:path-effect="#path-effect5225"
       inkscape:original-d="m 521.47995,799.27778 c 153.35576,-39.84703 386.78913,57.11834 531.92655,-12.25276 201.0568,-96.09888 158.5998,-614.648 64.0874,-732.100222"
       inkscape:connector-curvature="0" />
    <path
       style="fill:#552200;fill-rule:evenodd;stroke:none;stroke-width:1px;stroke-linecap:butt;stroke-linejoin:miter;stroke-opacity:1"
       d="m 457.39244,162.13613 c 0.87402,0.47445 -3.746,9.97791 -10.68211,27.0228 -7.28621,17.90521 -15.72502,40.84688 -24.40774,72.22024 -9.28979,33.60351 -17.50958,72.65473 -22.07067,116.48357 -0.0442,0.42552 -0.088,0.85136 -0.13149,1.27752 -4.44968,43.61788 -4.2823,82.00997 -0.53112,116.7432 0,0 1e-5,10e-6 1e-5,10e-6 2.28263,21.1463 5.71887,39.04613 9.67769,54.50941 8.09614,31.61168 17.43696,49.07979 16.10165,49.77822 -0.77765,0.40675 -12.27147,-16.08324 -22.26217,-48.02538 -4.85265,-15.5098 -9.09382,-33.76887 -11.99214,-55.23164 0,0 0,-1e-5 0,-1e-5 -4.7534,-35.21245 -5.46881,-74.60546 -0.94263,-118.79084 0.0443,-0.43259 0.089,-0.86484 0.1342,-1.29673 4.63626,-44.44925 13.5556,-84.10517 23.89514,-117.81572 9.56665,-31.22038 19.44242,-54.67181 28.06883,-71.87515 8.35109,-16.65426 14.45415,-25.37319 15.14255,-24.9995 z"
       id="path5227"
       inkscape:path-effect="#path-effect5229"
       inkscape:original-d="M 457.39244,162.13613 C 397.47452,272.5157 362.30223,479.63421 425.34866,600.1711"
       inkscape:connector-curvature="0" />
    <path
       style="fill:#552200;fill-rule:evenodd;stroke:none;stroke-width:1px;stroke-linecap:butt;stroke-linejoin:miter;stroke-opacity:1"
       d="m 1195.5348,286.16799 c -0.318,-0.18851 3.3177,-7.75078 11.5882,-21.0976 7.8216,-12.62225 21.5897,-33.20955 40.8099,-54.2958 14.2997,-15.69123 33.332,-33.51686 57.0717,-48.07722 16.5905,-10.17525 36.2198,-19.08962 58.1008,-23.87759 17.6305,-3.85051 36.8507,-4.96163 56.4028,-2.15806 17.5204,2.5206 35.1567,8.15314 51.8784,16.91197 16.0756,8.42324 31.1697,19.60192 44.6635,33.11351 13.4444,13.46082 25.2279,29.10603 34.9565,46.43082 9.8534,17.54415 17.5621,36.70501 22.8291,56.93179 5.4003,20.73751 8.2149,42.49627 8.2726,64.64244 0.059,23.10558 -2.8763,46.51121 -8.7203,69.5344 -1.5761,6.20754 -3.3604,12.37996 -5.3462,18.50865 -6.0071,18.5392 -13.735,36.29612 -22.7695,53.05392 -14.013,25.98943 -31.1267,49.60594 -49.8487,70.71416 -22.8197,25.72822 -48.1167,47.93224 -73.8725,67.02057 0,0 0,2e-5 0,2e-5 -33.0762,24.51521 -67.4186,44.34278 -100.1911,60.50582 -80.1342,39.51122 -157.8478,61.0734 -207.2607,72.72264 -51.6551,12.17786 -81.6097,15.92568 -81.7047,15.42856 -0.2348,-1.22789 29.4062,-6.61685 80.5253,-20.14434 48.7274,-12.8946 125.9606,-35.70751 204.6857,-75.52524 32.2553,-16.31009 66.0034,-36.14229 98.3792,-60.44958 0,0 10e-5,-2e-5 10e-5,-2e-5 25.209,-18.92772 49.9218,-40.8126 72.1206,-66.02563 18.2103,-20.68289 34.835,-43.72281 48.3932,-68.96832 8.7418,-16.27558 16.2222,-33.48646 22.0321,-51.41454 1.9207,-5.9269 3.6458,-11.89206 5.1688,-17.88715 5.6492,-22.23288 8.514,-44.8084 8.4968,-67.05719 -0.016,-21.32632 -2.6614,-42.27534 -7.7837,-62.22199 -4.9969,-19.4567 -12.3127,-37.88908 -21.6747,-54.751 -9.2457,-16.64954 -20.4216,-31.6901 -33.1687,-44.61588 -12.7915,-12.96926 -27.0683,-23.72976 -42.2573,-31.8426 -15.786,-8.43465 -32.4537,-13.94623 -49.0122,-16.4991 -18.468,-2.85663 -36.7697,-2.01641 -53.6311,1.43041 -20.9425,4.27208 -39.9966,12.5913 -56.251,22.1649 -23.2664,13.70344 -42.2979,30.80166 -56.7718,45.87375 -19.3596,20.16407 -33.9168,40.3065 -42.2834,52.29629 -8.9362,12.80591 -13.3488,19.90814 -13.8277,19.62423 z"
       id="path5239"
       inkscape:path-effect="#path-effect5241"
       inkscape:original-d="m 1195.5348,286.16799 c 277.9559,-468.83615 772.6625,317.09958 -163.1402,496.013"
       inkscape:connector-curvature="0" />
    <ellipse
       style="opacity:0.95;fill:#552200;fill-opacity:1;stroke:none;stroke-width:0;stroke-miterlimit:4;stroke-dasharray:none;stroke-opacity:1"
       id="path5243"
       cx="642.04462"
       cy="-313.4227"
       rx="32.444313"
       ry="30.631811" />
    <ellipse
       style="opacity:0.95;fill:#552200;fill-opacity:1;stroke:none;stroke-width:0;stroke-miterlimit:4;stroke-dasharray:none;stroke-opacity:1"
       id="path5245"
       cx="1095.0634"
       cy="-197.0219"
       rx="36.049232"
       ry="33.694992" />
    <ellipse
       style="opacity:0.95;fill:#0078ff;fill-opacity:1;stroke:none;stroke-width:0;stroke-miterlimit:4;stroke-dasharray:none;stroke-opacity:1"
       id="path5247"
       cx="638.4397"
       cy="-316.48593"
       rx="12.817506"
       ry="12.252724" />
    <ellipse
       style="opacity:0.95;fill:#0078ff;fill-opacity:1;stroke:none;stroke-width:0;stroke-miterlimit:4;stroke-dasharray:none;stroke-opacity:1"
       id="path5249"
       cx="1092.6602"
       cy="-203.91405"
       rx="13.6186"
       ry="12.252724" />
    <path
       style="fill:#552200;fill-rule:evenodd;stroke:none;stroke-width:1px;stroke-linecap:butt;stroke-linejoin:miter;stroke-opacity:1"
       d="m 1021.3627,-21.654734 c 0.2833,-1.094232 4.6452,-0.735432 11.8937,-0.415219 6.9042,0.305009 17.6362,0.623814 28.3002,-2.170799 6.6976,-1.748535 13.7871,-4.843364 19.672,-9.716727 1.5196,-1.258464 2.9194,-2.603466 4.1903,-4.030931 6.1811,-6.784049 9.4015,-15.306817 10.6188,-22.8426 1.3587,-8.324035 0.4151,-16.001378 -0.3591,-21.053639 -0.7997,-5.219042 -1.4886,-8.300159 -0.6153,-8.691671 0.4047,-0.181428 10.6783,9.388082 9.402,30.647316 -0.5649,9.134062 -3.9038,19.700063 -11.6066,28.548543 -1.6132,1.819717 -3.3758,3.522012 -5.2751,5.095433 -7.3878,6.120326 -15.9773,9.597091 -24.0138,11.11696 -12.7167,2.387258 -24.0575,0.638513 -31.1975,-1.273924 -7.3872,-1.978682 -11.2497,-4.285257 -11.0096,-5.212742 z"
       id="path5253"
       inkscape:path-effect="#path-effect5255"
       inkscape:original-d="m 1021.3627,-21.654734 c 64.3115,16.6494664 91.8579,-28.421476 73.7006,-68.921586"
       inkscape:connector-curvature="0" />
    <path
       style="fill:#552200;fill-rule:evenodd;stroke:none;stroke-width:1px;stroke-linecap:butt;stroke-linejoin:miter;stroke-opacity:1"
       d="m 907.60732,-592.93801 c 0.11577,-0.0711 -12.228,-9.3104 -19.12673,-32.34438 0,0 0,0 0,0 -1.11001,-3.68709 -1.99291,-7.98212 -1.94259,-12.63699 0.0183,-3.2483 0.66226,-6.82695 2.38688,-10.29728 1.49176,-2.88269 3.7367,-5.40029 6.57722,-7.23706 2.90194,-1.83343 6.08982,-2.94882 9.29197,-3.46784 3.62393,-0.60827 7.25677,-0.64348 10.81147,-0.29752 4.02508,0.37949 7.99051,1.17917 11.89245,2.27723 3.69223,1.03837 7.34212,2.31719 10.94914,3.81363 5.13786,2.13153 9.9952,4.62427 14.54141,7.29269 9.45675,5.5332 17.66731,11.88165 24.62984,18.49671 8.63143,8.18715 14.9859,16.48501 19.51838,24.33647 0,0 0,10e-6 0,10e-6 9.59354,16.58087 9.16924,28.25409 8.20394,28.44342 -1.4592,0.28622 -3.8401,-10.50133 -14.01229,-24.71085 0,0 -10e-6,-10e-6 -10e-6,-10e-6 -4.94596,-6.89504 -11.32618,-14.07985 -19.76747,-21.40093 -6.80145,-5.88845 -14.63198,-11.57101 -23.50754,-16.59519 -4.28458,-2.41716 -8.78054,-4.68791 -13.44352,-6.62989 -3.2759,-1.36431 -6.55182,-2.53212 -9.83678,-3.48154 -3.4599,-0.99931 -6.83809,-1.74733 -10.16236,-2.11989 -2.94623,-0.31927 -5.73016,-0.39551 -8.31994,-0.0154 -2.25249,0.34865 -4.28737,0.91547 -5.88877,1.89716 -1.51295,0.88468 -2.79366,2.16916 -3.62558,3.61438 -1.0915,1.77542 -1.58875,4.10075 -1.81073,6.44417 -0.29687,3.42988 0.21208,7.04819 0.89226,10.39806 0,0 0,10e-6 0,10e-6 2.00958,9.78808 6.30834,19.38425 8.54858,24.57564 2.52853,5.85948 3.88894,9.22279 3.20077,9.64515 z"
       id="path5269"
       inkscape:path-effect="#path-effect5271"
       inkscape:original-d="m 907.60732,-592.93801 c -66.31315,-108.04765 83.14395,-56.00292 97.73338,18.37909"
       inkscape:connector-curvature="0" />
  </g>
</svg>
